<svg width="318" height="227" viewBox="0 0 318 227" fill="none" xmlns="http://www.w3.org/2000/svg">
<path d="M17.0031 210.511C18.9758 209.806 21.4297 209.608 23.2621 209.644C23.8384 209.655 23.6211 210.116 24.0114 210.144C24.7949 210.198 25.4432 209.901 26.2104 210.002C26.4611 210.038 26.2466 210.742 26.503 210.765C27.9216 210.886 29.2027 210.571 30.6062 210.57C32.7767 210.569 34.8825 210.561 37.0106 210.542C41.2841 210.479 46.2004 210.124 50.8806 210.079C51.9007 210.062 53.0228 210.147 54.1592 210.214C55.5525 210.296 56.9435 210.347 58.2127 210.14C58.4798 210.095 58.2918 209.514 58.3406 209.463C59.1049 208.682 58.8967 209.884 59.4326 210.017C61.5399 210.545 63.8797 210.498 65.8673 210.191C66.725 210.058 65.8166 208.922 66.7066 209.545C66.7681 209.587 66.5757 210.221 66.8128 210.279C67.3475 210.408 68.351 210.258 68.768 210.292C69.5688 210.361 69.6819 210.351 70.4463 210.331C71.4739 210.309 72.7129 210.579 73.7981 210.402C74.0305 210.363 73.6963 209.731 74.0725 209.61C74.4519 209.489 75.446 209.512 75.7782 209.654C76.1201 209.795 75.992 210.304 76.0551 210.418C76.5825 211.378 77.6747 209.995 77.827 209.958C80.5123 209.314 82.8486 210.03 85.3793 209.982C87.3023 209.943 89.3568 209.66 91.1867 209.679C93.3775 209.704 95.2282 210.044 97.368 210.002C97.5998 209.999 97.3375 209.242 97.6172 209.236C98.4978 209.224 99.2266 209.211 100.315 209.279C102.325 209.434 104.344 209.692 106.36 210.159C106.645 210.226 106.241 210.868 106.523 210.974C108.248 211.608 110.975 213.046 112.153 210.212C113.339 210.38 114.782 210.562 115.823 211.191C116.496 211.596 115.795 212.287 116.653 212.018C116.848 211.958 116.628 211.315 116.917 211.273C118.133 211.097 119.442 211.363 120.652 211.094C120.897 211.038 120.859 210.469 120.933 210.371C121.552 209.573 122.459 210.986 122.659 211.096C122.871 211.207 123.077 211.299 123.272 211.375C124.536 211.864 125.592 211.703 126.877 211.785C127.222 211.808 126.855 211.027 127.187 211.021C128.913 211.002 130.696 211.161 132.365 211.592C132.738 211.689 132.356 212.317 132.532 212.397C133.304 212.741 133.549 211.529 134.295 211.836C134.451 211.899 134.33 212.448 134.355 212.511C134.755 213.492 135.233 212.162 135.351 212.139C136.863 211.819 137.728 213.289 139.176 213.181C139.35 213.167 139.006 212.442 139.493 212.445C142.724 212.46 146.128 212.904 149.264 213.736C149.752 213.864 149.353 214.359 149.379 214.427C149.8 215.482 150.243 214.155 150.41 214.118C150.54 214.093 150.667 214.083 150.792 214.083C151.906 214.081 152.88 214.945 153.77 213.551C159.067 214.536 164.473 213.981 169.702 215.764C169.769 215.785 169.606 216.446 169.739 216.485C171.344 216.962 171.095 215.903 172.249 214.697C172.539 214.394 173.271 215.979 173.338 216.096C173.579 216.527 173.243 217.506 173.327 217.591C174.027 218.266 174.102 214.967 175.097 215.025C175.128 215.032 174.962 215.631 175.041 215.696C175.29 215.9 175.558 215.674 175.801 215.898C176.357 216.415 176.464 218.026 177.409 217.147C177.528 217.032 177.467 215.155 178.345 215.294C178.699 215.351 180.265 215.407 180.698 215.552C181.127 215.697 180.795 216.283 180.824 216.311C181.961 217.172 181.499 217.477 182.024 218.687C182.546 219.893 182.542 217.085 182.799 216.785C183.062 216.487 183.883 217.189 184.091 217.429C184.292 217.669 184.006 218.037 184.189 218.176C185.388 219.086 184.811 216.815 185.248 216.392C186.274 215.39 186.915 217.504 187.812 217.752C188.049 217.819 187.877 217.336 188.091 217.302C188.957 217.174 189.436 217.847 190.429 217.295C190.515 217.248 190.784 216.899 191.072 216.704C191.349 216.523 191.665 216.476 191.89 216.928C191.956 217.063 191.729 217.572 192.087 217.704C192.625 217.902 193.595 218.059 194.187 217.912C194.623 217.803 194.167 216.928 194.699 217.217C194.935 217.346 194.467 217.825 194.91 218.026C195.352 218.227 196.503 218.255 196.942 218.256C197.381 218.257 197.168 217.6 197.205 217.558C197.427 217.317 198.279 217.039 198.352 217.043C202.077 217.113 205.485 218.302 209.118 217.955C209.403 217.929 209.215 217.245 209.259 217.234C210.23 216.95 209.46 218.765 210.144 219.373C210.044 217.986 210.446 218.238 211.132 218.082C211.463 218.006 211.279 217.47 211.309 217.415C211.789 216.597 212.138 217.646 212.23 217.86C212.563 218.649 212.904 217.707 213.133 218.233C213.363 218.755 212.865 219.543 213.527 219.522C213.702 219.022 213.192 217.735 213.685 217.516C215.075 216.898 217.379 217.242 219.102 217.444C219.695 217.514 220.22 217.576 220.614 217.587C222.149 217.632 222.639 217.529 223.534 217.682C225.148 217.964 224.538 217.018 225.526 216.555C226.519 216.093 226.08 218.47 226.234 218.976C226.385 219.482 226.528 218.955 226.71 219.231C226.89 219.507 226.521 219.86 226.93 219.957C227.34 220.054 228.445 219.13 228.584 218.596C228.874 217.464 228.345 216.289 229.442 216.687C229.506 216.711 229.311 217.336 229.553 217.395C231.459 217.845 233.435 217.848 235.338 218.245C235.601 218.3 235.377 218.996 235.53 219.036C237.117 219.455 236.536 218.296 237.381 216.986C237.214 218.715 237.709 219.763 238.912 219.753C239.634 219.747 239.497 218.996 239.954 218.456C240.09 218.293 240.611 218.801 240.697 218.445C240.979 217.28 240.473 215.993 241.717 216.484C241.772 216.507 241.613 217.145 241.801 217.18C243.016 217.405 243.133 216.19 244.433 216.01C245.451 215.869 247.289 216.552 248.457 216.629C248.503 218.569 249.593 218.084 249.983 216.728C250.103 216.732 250.225 216.732 250.347 216.731C251.009 216.722 251.696 216.672 252.326 216.812C252.581 216.869 252.428 217.435 252.461 217.494C252.974 218.435 253.275 217.128 253.442 217.074C255.226 216.549 256.684 217.532 258.38 216.566C258.441 216.532 258.538 215.184 258.992 216.168C259.022 216.236 258.461 216.849 259.259 216.896C260.058 216.944 261.561 217.668 262.666 217.04C262.934 216.889 263.601 215.793 264.148 216.644C264.221 216.76 264.145 217.147 264.25 217.361C264.591 218.044 264.766 216.681 265.172 217.834C265.581 218.986 266.431 219.845 267.539 219.019C267.574 218.995 267.813 217.909 268.161 217.915C268.722 217.927 269.525 218.121 270.109 218.082C270.391 218.063 270.173 217.403 270.221 217.388C270.531 217.307 270.832 217.252 271.114 217.218C272.56 217.045 273.803 217.423 275.488 217.583C275.855 217.619 276.91 216.678 277.64 217.395C278.432 218.182 277.653 221.47 279.407 220.692C280.102 220.384 281.119 216.221 282.371 218.427C284.754 218.006 286.902 219.063 289.28 218.716C289.45 218.692 289.624 218.659 289.8 218.617C289.916 218.589 290.337 217.443 290.597 217.469C290.994 217.51 291.191 218.061 291.477 218.105C292.669 218.3 293.768 217.84 294.919 217.909C295.354 217.934 295.208 218.498 295.729 218.526C296.254 218.554 296.592 217.809 297.305 218.159C297.84 218.426 298.398 219.935 299.109 220.102C299.117 218.607 299.604 218.631 300.465 218.225C300.631 218.146 300.445 217.628 300.523 217.564C300.839 217.292 301.144 217.719 301.444 217.424C301.517 217.353 301.515 216.842 301.575 216.755C302.083 215.997 302.945 217.139 303.093 217.338C303.657 218.094 303.914 217.428 304.344 217.726C304.774 218.024 304.135 218.4 304.634 218.58C305.667 218.953 306.991 218.878 308.037 218.92C308.454 218.933 308.182 218.247 308.242 218.233C308.674 218.155 309.105 218.3 309.491 218.302C309.881 218.304 310.225 218.164 310.507 217.495C310.906 221.031 311.064 217.195 312.241 217.957C312.329 218.017 312.419 219.683 312.001 219.91C311.584 220.135 311.042 219.576 310.519 219.927C310.386 220.007 309.662 221.532 309.582 221.626C309.516 221.693 309.459 221.732 309.404 221.748C308.832 221.898 308.788 219.848 308.755 219.724C308.335 218.243 307.447 219.906 307.225 220.02C306.193 220.539 305.322 220.188 304.462 220.569C303.899 220.815 303.853 222.441 303.413 222.394C301.951 222.24 301.405 219.98 300.037 221.963C299.745 222.386 300.065 224.159 298.973 222.776C298.904 222.689 298.09 221.422 297.635 222.236C297.578 222.338 297.586 222.856 297.509 222.9C296.997 223.188 296.646 222.779 296.084 222.981C295.518 223.183 294.833 223.481 294.177 223.304C293.779 223.199 293.275 222.231 293.09 221.993C292.564 221.308 291.971 222.413 291.652 221.581C291.339 220.745 292.013 219.506 291.169 218.947C291.096 220.29 290.978 221.668 290.88 223.018C290.264 222.983 289.646 222.903 289.022 222.801C287.766 222.581 286.528 222.312 285.266 222.288C285.039 222.286 285.234 223.019 284.991 223.035C283.969 223.099 283.103 222.546 282.051 222.718C281.236 222.854 280.342 223.6 279.514 223.786C279.02 222.241 277.772 222.763 276.875 222.641C276.559 222.599 276.57 222.187 276.342 222.059C275.476 221.585 275.916 222.935 275.692 223.155C274.739 224.102 274.532 221.028 273.334 221.167C273.267 221.173 272.595 222.856 272.501 222.965C271.877 223.673 272.352 222.402 271.926 222.309C271.769 222.275 271.619 222.234 271.473 222.194C270.835 222.041 270.294 221.9 269.524 222.318C269.246 222.473 268.585 223.521 268.012 222.745C267.936 222.644 267.961 222.1 267.902 222.07C266.842 221.568 266.851 223.27 266.26 223.857C265.664 224.444 264.733 223.276 264.545 222.938C264.052 222.065 264.915 222.561 264.941 222.474C265.24 221.447 264.575 221.63 264.07 221.546C263.985 219.876 263.284 219.979 263.545 221.466C263.575 221.628 263.967 221.471 264.07 221.546C263.636 223.189 262.851 223.402 261.995 221.871C261.594 221.153 261.971 220.316 260.761 220.622C260.212 220.76 260.423 221.911 259.939 222.225C258.834 222.94 257.404 221.867 256.278 222.041C255.869 222.105 256.271 222.733 255.992 222.798C255.255 222.973 254.601 222.507 253.868 222.76C253.802 222.783 253.973 223.44 253.747 223.452C252.652 223.518 251.649 223.39 250.627 223.312C249.997 223.27 249.351 223.237 248.668 223.258C247.76 223.286 246.149 223.701 245.208 223.653C243.577 223.575 241.563 222.66 240.187 222.918C239.289 223.084 239.498 223.739 239.119 224.195C238.388 225.079 237.044 223.54 236.865 223.301C236.859 223.294 237.63 223.126 237.212 222.794C236.961 222.092 236.873 223.298 236.865 223.301C236.746 223.147 235.198 223.021 234.895 223.151C234.73 223.222 234.831 223.845 234.745 223.871C232.688 224.459 230.63 224.645 228.552 224.388C228.515 224.376 228.559 223.676 228.472 223.657C227.266 223.367 226.511 224.236 225.539 224.765C224.569 225.295 223.791 225.146 223.179 223.963C222.449 224.136 221.372 223.643 220.758 223.347C220.135 223.051 220.12 224.414 220.067 224.443C219.856 224.565 219.661 224.659 219.475 224.73C218.105 225.211 217.098 224.649 215.512 224.59C214.644 224.556 212.932 224.786 211.997 224.942C211.258 225.069 210.81 224.752 210.13 224.957C210.038 224.984 210.132 225.59 210.104 225.613C209.341 226.338 209.709 224.857 209.553 224.592C208.986 223.629 208.645 223.116 207.675 223.56C207.454 223.661 206.776 225.785 206.364 225.904C205.829 226.053 206.043 225.293 205.485 225.468C205.437 225.482 205.437 225.954 205.094 225.926C203.505 225.805 201.781 225.481 200.142 225.47C199.916 225.466 200.178 226.224 199.853 226.232C198.329 226.266 196.667 226.168 195.221 225.754C194.864 225.65 195.113 225.137 195.041 224.978C194.603 224.017 193.863 225.352 193.751 225.373C192.644 225.594 191.663 225.5 190.706 225.348C189.299 225.128 187.932 224.776 186.302 225.042C186.149 225.069 184.936 226.475 184.478 225.192C184.446 225.107 184.018 223.797 183.52 224.651C183.488 224.705 183.773 225.382 183.219 225.286C182.684 225.19 181.767 225.583 181.055 224.816C180.822 224.573 180.34 223.263 179.565 224.243C179.509 224.312 178.292 226.558 177.982 224.943C177.932 224.677 178.098 222.996 177.2 223.812C177.027 223.97 177.301 224.363 176.859 224.573C176.183 224.897 175.337 224.395 174.492 225.098C174.344 225.222 173.674 226.33 173.248 225.434C173.181 225.293 173.358 224.739 173.108 224.661C171.92 224.287 170.638 224.586 169.439 224.121C169.014 223.957 169.292 223.062 168.856 222.79C168.421 222.518 167.526 222.227 167.028 222.612C166.529 222.997 166.953 224.479 166.237 224.549C163.122 224.854 160.13 223.799 157.052 223.449C156.602 223.398 156.937 223.943 156.259 223.903C154.588 223.805 152.07 223.84 149.957 223.464C148.962 223.284 148.064 223.016 147.401 222.597C145.785 221.578 147.967 221.081 146.703 220.617C146.092 220.395 145.285 222.025 145.131 222.067C143.621 222.492 142.655 221.672 141.313 221.808C141.036 221.837 141.257 222.538 141.022 222.555C140.221 222.618 139.405 222.258 138.641 222.264C138.298 222.269 138.327 222.795 138.017 222.734C137.27 222.596 136.621 222.336 135.916 221.803C135.851 221.754 136.342 221.133 135.786 221.075C134.886 220.984 133.791 220.436 132.722 220.876C132.403 221.008 132.329 222.2 131.708 221.34C131.578 221.16 131.836 219.738 130.993 220.933C130.851 221.131 129.461 222.73 128.879 221.621C128.726 221.329 128.356 220.134 127.974 220.299C127.921 220.325 128.091 220.977 127.778 221.023C126.677 221.175 125.537 221.047 124.402 221.189C124.1 221.228 124.512 221.914 124.061 221.951C123.635 221.986 123.174 221.98 122.707 221.945C121.835 221.88 120.92 221.715 120.144 221.541C119.71 221.442 120.039 220.907 120.01 220.846C119.538 219.849 119.177 221.147 118.999 221.216C117.916 221.624 117.131 220.97 116.14 221.089C115.867 221.12 116.031 221.754 115.974 221.807C115.389 222.327 115.858 221.222 115.507 221.082C114.528 220.686 113.414 220.686 112.401 220.72C112.029 220.733 112.412 221.478 112.079 221.481C110.102 221.516 108.049 221.349 106.134 220.851C105.772 220.756 106.031 220.209 105.961 220.077C105.485 219.158 104.654 220.335 104.47 220.441C103.637 220.928 103.351 220.416 102.631 220.468C101.663 220.54 100.631 220.545 99.5727 220.501C97.6267 220.493 94.4037 220.296 92.1808 220.163C88.0066 219.936 84.75 219.464 80.7547 219.698C80.5015 219.712 80.7754 220.45 80.5572 220.472C77.7371 220.721 74.9339 220.514 72.1151 220.825C71.8857 220.849 72.2416 221.542 71.8738 221.605C71.1196 221.738 70.1366 221.735 69.3634 221.538C68.982 221.444 69.4661 220.82 69.0821 220.738C68.1747 220.544 67.2469 220.53 66.3292 220.68C65.9407 220.745 66.5566 221.442 66.0532 221.471C62.6391 221.68 59.2864 221.957 55.7794 221.197C55.5386 221.145 55.2562 219.691 54.7608 219.998C54.7431 220.406 54.7697 220.884 54.7751 221.319C54.7593 221.321 54.7434 221.322 54.7276 221.324C49.7799 221.8 45.1544 221.656 40.0792 222.12C39.8592 222.139 40.3153 222.875 39.8886 222.914C39.2697 222.971 38.6394 223.04 37.9961 223.097C36.2698 223.252 34.5599 223.377 32.7419 222.973C32.5026 222.92 32.4919 221.547 31.816 221.824C31.7019 221.873 30.6755 222.164 30.4519 222.488C30.4199 222.536 30.68 223.149 30.3459 223.205C28.4384 223.514 26.431 223.622 24.5344 223.53C24.2322 223.513 24.4387 222.792 24.2167 222.776C22.6423 222.665 21.145 223.477 19.7439 223.209C18.8083 223.032 18.8023 221.818 17.9923 220.856C17.8713 220.72 17.3368 220.874 17.0749 220.257C16.4047 218.701 16.1024 216.842 15.3631 215.193C15.2027 214.829 14.2775 215.643 14.5753 214.517C14.605 214.433 15.2856 213.856 15.3727 213.498C15.4399 213.244 14.9783 212.675 15.1771 212.315C15.3723 211.957 15.8417 212.413 16.1909 211.971C16.5397 211.528 16.1499 210.822 17.0031 210.511ZM217.907 222.039C217.297 221.411 217.303 223.805 217.918 223.207C217.947 223.175 217.939 222.07 217.907 222.039ZM287.218 220.529C286.533 219.432 285.937 220.954 286.415 221.797C286.89 222.639 287.427 220.862 287.218 220.529ZM295.165 220.009C294.279 219.179 294.134 222.572 295.095 221.884C295.151 221.845 295.217 220.057 295.165 220.009ZM20.2164 219.933C20.2016 219.904 19.7638 219.972 19.76 220.006C19.7083 220.797 20.5679 220.663 20.2164 219.933ZM302.904 219.086C302.627 218.629 301.843 219.166 302.189 219.734C302.467 220.19 303.249 219.654 302.904 219.086ZM187.78 218.92C187.773 218.884 187.441 218.835 187.437 219.037C187.429 219.687 187.901 219.526 187.78 218.92ZM316.089 219.006C314.199 219.011 312.724 216.361 314.886 216.473C315.28 216.496 314.126 217.439 314.644 217.646C315.566 218.024 316.078 216.226 317.061 217.137C317.223 217.302 316.185 219.01 316.086 219.01C316.087 219.009 316.088 219.008 316.089 219.006ZM217.454 219.181C217.442 219.15 216.979 219.138 216.969 219.17C216.747 219.939 217.683 219.963 217.454 219.181ZM168.43 216.339C168.408 216.271 167.343 216.14 167.305 216.199C166.667 217.403 168.822 217.672 168.43 216.339ZM248.478 216.68C248.951 215.898 249.542 215.785 249.981 216.727C249.481 216.697 248.98 216.709 248.478 216.68Z" fill="black"/>
<path d="M0.0434535 104.953C0.606545 102.243 2.16572 99.1623 3.58173 97.0966C4.02246 96.4488 4.22162 96.9867 4.54125 96.5615C5.17369 95.7235 5.46678 94.7832 6.15014 94.0178C6.38022 93.7633 6.74288 94.4659 6.96983 94.1939C8.04709 92.9078 8.8178 91.5419 9.80729 90.2377C9.94358 90.0582 10.0851 89.879 10.233 89.7005C16.2428 82.6198 22.2431 76.6646 28.5013 70.4721C30.5664 68.4439 33.4357 66.353 35.2845 64.0387C35.4971 63.7708 34.9306 63.5099 34.9402 63.4296C35.0726 62.4574 35.4756 62.8803 35.9145 62.9506C36.0435 62.9698 36.1757 62.9587 36.3055 62.8739C38.5889 61.3791 40.6565 59.2536 42.2356 57.2209C42.9061 56.3547 41.304 56.3588 42.5324 56.0018C42.6168 55.976 42.8874 56.6049 43.14 56.4308C43.7117 56.0357 44.5042 55.0141 44.8975 54.661C45.6579 53.9825 45.7669 53.8549 46.4218 53.1535C47.3208 52.1986 48.605 51.2581 49.4499 50.1227C49.6289 49.879 48.8867 49.7399 49.1292 49.3125C49.3721 48.8848 50.2665 47.9845 50.6666 47.7695C51.0663 47.5551 51.3169 48.0293 51.4534 48.0511C52.0651 48.1557 52.3458 47.6311 52.4895 47.0972C52.6259 46.6211 52.6673 46.1367 52.7181 46.0593C54.7821 43.0174 57.5417 41.4866 59.9364 39.2657C61.7618 37.5765 63.5428 35.6238 65.3009 34.076C67.3953 32.2364 69.37 30.9117 71.318 29.042C71.5236 28.8456 70.7675 28.5154 71.0181 28.2739C71.4332 27.8741 71.8305 27.4954 72.2506 27.1016C74.5965 24.9009 77.102 22.8894 79.846 21.2014C80.1716 21.0018 80.2146 21.8226 80.5635 21.6553C82.6881 20.6164 86.3298 19.4294 85.5768 16.3398C86.8376 15.484 88.3114 14.4376 89.7002 14.0165C90.5958 13.7426 90.4339 14.8351 91.0352 13.9071C91.055 13.8765 91.0581 13.8447 91.0497 13.8117C90.9989 13.6192 90.5564 13.3847 90.7509 13.1513C91.7003 12.0101 93.0148 11.0366 93.8436 9.7476C94.0106 9.48503 93.5506 9.14375 93.5396 9.01051C93.4614 7.92083 95.2926 8.00548 95.5556 7.88018C97.5343 6.93179 98.4029 5.61847 100.003 4.26155C100.378 3.94892 99.4406 3.74482 99.7952 3.4169C101.087 2.23882 102.711 1.10587 104.591 0.413974C106.464 -0.285918 107.656 0.0631372 108.578 0.295096C109.24 0.504012 108.493 1.01496 108.789 1.14773C109.948 1.73504 110.563 0.678881 111.54 1.33404C111.743 1.47392 111.407 1.93699 111.424 2.00958C111.636 3.1273 112.678 2.11475 112.842 2.15657C114.907 2.66773 115.352 4.52848 117.08 5.26415C117.285 5.35072 117.194 4.49273 117.752 4.77616C121.525 6.70271 125.144 9.20571 128.309 11.8603C128.802 12.2732 128.136 12.4766 128.135 12.5529C128.149 13.7624 129.234 12.8383 129.433 12.9035C131.014 13.4671 131.703 15.2563 133.496 14.4739C137.482 17.4825 141.823 19.8173 145.855 22.6946C147.412 23.809 148.94 24.985 150.395 26.3079C150.461 26.3659 149.99 26.8669 150.124 26.9805C151.742 28.3527 151.919 27.2491 153.739 26.818C154.195 26.7091 154.361 28.5654 154.389 28.7098C154.485 29.2387 153.69 29.9374 153.751 30.0633C154.274 31.0773 155.738 28.1193 156.848 28.7286C156.881 28.7526 156.442 29.2045 156.507 29.3087C156.707 29.6345 157.111 29.5807 157.296 29.9194C157.717 30.6982 157.191 32.2369 158.638 31.9552C158.822 31.9164 159.513 30.1661 160.472 30.7776C160.854 31.0247 162.641 31.933 163.083 32.2999C163.526 32.6683 162.904 33.0231 162.927 33.0649C163.902 34.4731 163.24 34.5001 163.373 35.8993C163.509 37.2943 164.609 34.7057 165.03 34.571C165.451 34.4378 166.135 35.5298 166.277 35.8595C166.417 36.1881 165.938 36.3729 166.095 36.5993C167.145 38.0873 167.361 35.6836 168.036 35.5291C169.625 35.1574 169.559 37.4559 170.488 38.1542C170.742 38.3447 170.728 37.8069 170.996 37.8928C172.047 38.2348 172.343 39.1106 173.728 39.1424C173.949 39.1451 175.416 38.4842 175.588 39.5987C175.612 39.7586 175.144 40.103 175.509 40.4172C176.049 40.8843 177.132 41.5585 177.873 41.7402C178.431 41.8797 178.247 40.8287 178.751 41.3825C178.972 41.6278 178.238 41.8145 178.669 42.2373C179.115 42.6666 180.428 43.3159 180.948 43.5676C181.092 43.6369 181.196 43.6273 181.273 43.5785C181.433 43.4798 181.48 43.2158 181.515 43.1152C181.522 43.0962 181.528 43.083 181.535 43.0779C181.536 43.0769 181.537 43.0762 181.538 43.0759C181.898 42.9811 183.007 43.2107 183.091 43.2565C187.415 45.4532 190.768 48.5781 195.029 50.5621C195.363 50.7187 195.485 50.0034 195.539 50.0212C196.781 50.3923 195.021 51.4852 195.488 52.4462C196.057 51.176 196.391 51.6522 197.234 51.9542C197.644 52.1001 197.705 51.5181 197.766 51.4895C198.72 51.0926 198.583 52.2247 198.578 52.4689C198.556 53.367 199.409 52.7737 199.399 53.3764C199.389 53.9748 198.433 54.3294 199.179 54.7397C199.63 54.4246 199.721 52.9866 200.384 53.12C202.897 53.6288 206.353 56.7437 208.009 57.7883C209.664 58.8341 210.254 59.0567 211.167 59.7688C212.804 61.0465 212.612 59.8402 213.941 60.0711C215.273 60.3019 213.587 62.0755 213.503 62.6101C213.416 63.1427 213.841 62.7791 213.905 63.133C213.968 63.4866 213.373 63.5546 213.788 63.9023C213.804 63.9151 213.821 63.9273 213.839 63.939C214.328 64.2449 215.933 64.1305 216.326 63.7568C217.204 62.9445 217.177 61.5976 218.208 62.6035C218.267 62.6618 217.752 63.0963 217.992 63.2914C219.92 64.8238 222.216 66.0004 224.145 67.5567C224.413 67.7723 223.812 68.2317 223.965 68.3644C225.515 69.7353 225.459 68.3692 227.073 67.7952C225.996 69.1686 226.011 70.3885 227.325 71.1678C228.063 71.6072 228.314 71.0166 228.974 70.8077C229.03 70.7884 229.089 70.772 229.152 70.7594C229.382 70.7092 229.695 71.4971 229.971 71.2489C230.898 70.4523 231.037 69.0235 232.14 70.2848C232.188 70.3422 231.669 70.7707 231.859 70.9292C233.069 71.9486 233.853 71.0066 235.377 71.7579C236.57 72.3462 238.194 74.205 239.414 75.0974C238.373 76.7349 239.815 77.1009 241.006 76.2647C241.812 76.8274 242.745 77.3166 243.451 77.9735C243.695 78.1994 243.216 78.5632 243.219 78.6365C243.247 79.7755 244.296 78.8959 244.503 78.9648C246.704 79.7537 247.756 81.5795 250.115 81.9299C250.199 81.9419 251.026 80.8699 250.993 82.0138C250.988 82.0912 250.052 82.2238 250.893 82.813C251.735 83.4029 252.979 85.0502 254.514 85.2928C254.886 85.3524 256.212 84.9027 256.339 86.0013C256.354 86.1494 256.059 86.4192 256.056 86.6728C256.048 87.483 256.99 86.4696 256.79 87.7184C256.59 88.9672 257.011 90.2711 258.645 90.3839C258.696 90.3894 259.572 89.672 259.938 89.9322C260.252 90.1555 260.612 90.4771 260.967 90.785C261.284 91.0581 261.601 91.3227 261.893 91.5118C262.195 91.7061 262.372 91.0201 262.431 91.0441C264.662 92.067 265.768 93.5196 267.779 95.1789C268.143 95.4813 269.797 95.4901 270.149 96.6C270.552 97.827 267.841 99.9668 270.204 100.619C271.14 100.874 274.489 98.1001 274.653 100.832C277.651 102.23 279.514 104.862 282.64 106.088C282.775 106.14 283.833 105.453 284.103 105.658C284.508 105.969 284.44 106.583 284.715 106.815C285.894 107.824 287.318 108.233 288.505 109.114C288.964 109.451 288.476 109.804 289.029 110.206C289.576 110.601 290.349 110.221 290.926 111.004C291.163 111.325 291.218 111.954 291.337 112.562L291.296 112.537C291.377 113.063 291.49 113.571 291.808 113.871C292.643 112.629 293.154 112.994 294.309 113.248C294.53 113.296 294.611 112.733 294.73 112.733C295.221 112.722 295.313 113.286 295.802 113.243C295.919 113.232 296.189 112.799 296.3 112.766C297.251 112.466 297.577 114.003 297.64 114.273C297.863 115.29 298.493 114.891 298.813 115.427C299.133 115.963 298.235 115.868 298.699 116.352C299.653 117.349 301.181 118.135 302.331 118.834C302.794 119.112 302.821 118.338 302.895 118.364C303.947 118.778 304.524 119.973 305.773 119.159C304.571 122.415 306.38 119.429 307.371 120.638C307.377 120.643 307.393 120.658 307.399 120.662C307.431 120.712 307.46 120.767 307.485 120.828C307.544 120.963 306.512 122.191 306.024 122.124L306.115 122.203C306.106 122.203 306.098 122.202 306.089 122.201C305.639 122.149 305.376 121.334 304.625 121.306C304.448 121.296 302.893 122.163 302.747 122.186C301.575 122.338 302.718 120.136 302.745 119.993C302.996 118.432 301.194 119.323 300.883 119.276C299.466 119.067 298.656 118.194 297.492 117.949C296.737 117.788 295.846 119.149 295.367 118.806C293.778 117.664 294.399 115.388 291.805 116.085C291.252 116.231 290.628 117.943 290.18 116.001C290.16 115.923 290.083 115.264 289.795 114.854L289.944 114.945C289.747 114.698 289.467 114.538 289.106 114.675C288.984 114.72 288.715 115.163 288.6 115.142C287.847 115.008 287.664 114.401 286.937 114.164C286.205 113.922 285.302 113.674 284.704 113.059C284.351 112.695 284.36 111.535 284.297 111.206C284.124 110.265 282.903 110.78 283.027 109.867C283.15 108.947 284.53 108.369 283.938 107.314C283.143 108.399 282.284 109.484 281.464 110.561C279.512 109.161 277.835 107.472 275.823 106.162C275.572 106 275.413 106.767 275.138 106.612C273.964 105.945 273.303 104.867 272.031 104.248C271.062 103.781 269.648 103.746 268.616 103.279C268.914 101.621 267.227 101.111 266.314 100.328C265.987 100.05 266.24 99.7242 266.061 99.4424C265.402 98.4029 265.081 99.8258 264.705 99.8308C263.074 99.838 264.704 97.2249 263.343 96.4096C263.274 96.3669 261.511 97.1659 261.335 97.1713C260.228 97.2367 261.529 96.6146 261.132 96.2063C260.399 95.4548 260.031 94.7419 258.756 94.4779C258.702 94.467 258.629 94.4657 258.544 94.4683C258.049 94.4911 257.103 94.6498 256.994 93.7694C256.976 93.634 257.314 93.2069 257.271 93.1411C256.47 91.986 255.512 93.3964 254.577 93.4775C253.642 93.5583 253.32 91.95 253.305 91.5371C253.266 90.4689 253.902 91.4764 253.977 91.4222C254.86 90.7733 254.057 90.4643 253.568 90.0468C254.395 88.5918 253.583 88.1893 253.053 89.6173C252.997 89.7741 253.501 89.9131 253.568 90.0468C252.207 91.1205 251.269 90.7677 251.179 88.8919C251.137 88.013 251.993 87.5651 250.523 86.9917C249.855 86.7306 249.468 87.8477 248.777 87.7803C247.2 87.6263 246.219 85.7374 244.893 85.1038C244.412 84.8739 244.514 85.6817 244.173 85.5432C243.271 85.1782 242.804 84.328 241.857 84.0224C241.771 83.9955 241.602 84.6675 241.344 84.5163C239.377 83.3791 237.919 81.978 235.905 80.725C234.935 80.1211 232.996 79.3609 232.023 78.6847C230.327 77.5089 228.672 75.3941 227.039 74.6985C226.927 74.6506 226.827 74.6165 226.736 74.5936C225.946 74.3863 225.809 74.9665 225.223 75.0878C223.981 75.3678 223.346 73.2058 223.268 72.8859C223.271 72.8773 224.18 73.2175 223.902 72.669C223.996 71.9106 223.277 72.8876 223.268 72.8859C223.227 72.6796 221.613 71.6067 221.22 71.5411C221.008 71.5039 220.812 72.1084 220.705 72.0779C218.226 71.3596 215.839 70.3843 213.468 68.7963C213.431 68.7623 213.823 68.1793 213.731 68.1071C213.155 67.6418 212.576 67.4386 211.977 67.3335C211.264 67.2137 210.549 67.2569 209.788 67.1549C208.418 66.9787 207.603 66.3324 207.516 64.9116C206.598 64.5746 205.633 63.4288 205.093 62.758C204.552 62.0869 203.787 63.2172 203.713 63.2066C201.374 62.8819 200.645 61.5779 198.724 60.3545C197.808 59.7686 195.846 58.8855 194.754 58.4394C193.892 58.0899 193.566 57.5393 192.723 57.2977C192.61 57.265 192.413 57.8495 192.371 57.8526C191.193 58.0199 192.314 56.9522 192.273 56.6259C192.127 55.4393 191.995 54.7772 190.717 54.5778C190.421 54.5305 188.669 55.9926 188.166 55.8541C187.514 55.6714 188.101 55.1237 187.409 54.9495C187.349 54.9338 187.132 55.3523 186.769 55.1266C185.085 54.0865 183.335 52.8104 181.519 51.8859C181.271 51.7578 181.231 52.5854 180.868 52.4118C179.778 51.8902 178.645 51.2995 177.588 50.6431C177.012 50.2837 176.435 49.8916 175.905 49.4792C175.545 49.1956 176.034 48.8577 176.017 48.6747C175.896 47.5563 174.518 48.3892 174.375 48.3459C171.051 47.3982 169.247 45.1143 165.846 44.048C165.663 43.9942 163.681 44.6292 163.663 43.2085C163.658 43.112 163.67 41.6738 162.753 42.1908C162.696 42.2232 162.756 42.9988 162.153 42.6127C161.555 42.2297 160.333 42.0955 159.799 40.997C159.631 40.6515 159.574 39.1753 158.284 39.6516C158.199 39.688 155.851 41.0625 156.146 39.4119C156.196 39.1407 157.066 37.6935 155.684 37.9355C155.419 37.9834 155.58 38.4971 154.977 38.4401C154.052 38.3548 153.271 37.418 151.984 37.5695C151.76 37.5984 150.517 38.2224 150.386 37.155C150.366 36.988 150.803 36.5865 150.543 36.3698C149.311 35.3381 147.681 34.8473 146.48 33.6988C146.055 33.2931 146.767 32.6538 146.377 32.1432C145.988 31.6331 145.082 30.8227 144.336 30.8586C143.588 30.8935 143.422 32.4905 142.555 32.1007C141.888 31.8001 141.237 31.4542 140.613 31.0823C137.813 29.4184 135.395 27.1904 132.704 25.3641C132.215 25.0325 132.348 25.7317 131.614 25.2778C128.908 23.6081 124.043 21.0915 122.308 18.7014C120.936 16.797 123.606 17.6767 122.395 16.4935C121.784 15.9082 120.176 16.8959 119.976 16.8343C118.092 16.3014 117.355 14.9735 115.804 14.3141C115.482 14.1777 115.423 14.9387 115.155 14.8175C114.249 14.4171 113.49 13.6212 112.664 13.2197C112.292 13.0408 112.096 13.5296 111.787 13.3117C111.056 12.8036 110.457 12.2341 109.952 11.4327C109.904 11.3584 110.658 11.0092 110.093 10.6999C109.219 10.2198 108.207 9.24278 107.336 9.50277C107.099 9.58809 106.729 10.7262 106.829 9.90684C106.843 9.82193 106.903 9.42477 106.93 9.2013C106.945 9.08967 106.948 9.02133 106.96 9.05961C106.975 9.09654 106.984 9.24791 107.191 9.54972C107.259 9.60687 107.533 10.0978 108.806 9.90726C108.712 10.372 108.567 10.7591 108.027 10.3748C107.788 10.1875 106.844 9.39688 106.664 9.75391C106.645 9.80369 107.161 10.222 106.98 10.4302C106.34 11.1554 105.412 11.8895 104.622 12.9364C104.414 13.216 105.244 13.3332 104.919 13.7357C104.028 14.8427 102.531 16.1515 101.223 17.1598C100.739 17.5308 100.648 16.8458 100.575 16.8345C99.3931 16.6363 100.011 17.8667 99.8902 18.0903C99.1768 19.383 97.9917 19.7594 97.0529 20.687C97.0009 20.7385 96.9498 20.7917 96.8997 20.8469C96.643 21.127 97.2552 21.4251 97.2349 21.5166C96.9986 22.4409 96.7055 21.2091 96.2516 21.4347C94.9792 22.0604 93.8474 23.0505 92.853 23.9485C92.4889 24.2785 93.3732 24.5015 93.0405 24.7913C91.0755 26.517 89.0121 28.0328 86.9242 29.2218C86.531 29.4438 86.3938 28.8339 86.241 28.7938C85.1739 28.5111 85.2272 30.0519 85.1373 30.2792C84.7272 31.3148 84.1255 31.1779 83.5276 31.8139C82.4373 32.9831 81.1868 34.1785 79.887 35.3758C77.6387 37.4467 75.2228 39.4113 73.2146 41.0632C69.0217 44.5271 65.5073 46.9224 62.1212 50.4576C61.9081 50.6811 62.6529 50.9892 62.4779 51.1871C61.6334 52.1242 60.7867 53.008 59.9688 53.8897C58.4025 55.5818 56.8022 57.2386 55.3278 59.047C55.1351 59.2812 55.95 59.4362 55.658 59.8283C55.0627 60.6358 54.1782 61.5405 53.3282 62.1296C52.9146 62.4177 52.9175 61.5222 52.5105 61.8203C51.5618 62.5134 50.6847 63.3865 49.9604 64.3314C49.6534 64.7344 50.7001 64.6683 50.2591 65.1545C48.4023 67.2147 46.569 69.262 44.5259 71.1473C43.2734 72.3026 41.9437 73.39 40.5166 74.3625C40.2603 74.5365 39.0096 73.722 38.7665 74.3808C39.0259 74.698 39.3729 75.0276 39.6717 75.3443C35.3954 80.1354 30.7027 84.3518 26.5445 89.038C26.3699 89.2355 27.2547 89.3989 26.9212 89.7825C24.9951 92.0066 23.3812 94.3028 21.071 96.1356C20.843 96.3203 19.8245 95.3915 19.4999 96.1994C19.4761 96.2608 19.3542 96.5059 19.2366 96.7927C19.0662 97.1935 18.9063 97.6652 18.9402 97.9189C18.9532 97.9801 19.6089 98.1465 19.4011 98.491C18.19 100.482 16.8607 102.459 15.5458 104.292C15.3327 104.588 14.8855 103.949 14.7278 104.16C13.5988 105.69 13.3804 107.684 12.3623 109.091C11.6846 110.046 10.6478 109.375 9.37982 109.749C9.19785 109.805 9.03468 110.539 8.36815 110.469C6.68018 110.309 4.92602 109.58 3.11997 109.449C2.72363 109.42 2.94525 110.809 2.13022 109.887C2.07228 109.82 1.92828 108.796 1.66993 108.488C1.48738 108.278 0.755065 108.451 0.549647 108.045C0.349036 107.625 0.989592 107.374 0.80939 106.726C0.631609 106.076 -0.197125 106.125 0.0434535 104.953ZM202.653 59.7395C202.329 58.8079 201.061 60.8396 202.038 60.7325C202.086 60.725 202.67 59.7861 202.653 59.7395ZM278.862 105.99C278.678 104.581 277.234 105.472 277.343 106.536C277.444 107.594 278.923 106.421 278.862 105.99ZM287.598 111.034C287.113 109.71 285.068 112.423 286.477 112.54C286.559 112.548 287.627 111.111 287.598 111.034ZM9.87372 106.717C9.84012 106.713 9.63567 107.242 9.66381 107.262C10.2991 107.766 10.6939 106.747 9.87372 106.717ZM296.52 115.637C296.456 115.065 295.308 114.988 295.389 115.705C295.455 116.282 296.608 116.355 296.52 115.637ZM169.988 39.2105C169.992 39.1724 169.628 38.952 169.544 39.1354C169.276 39.7273 169.891 39.8333 169.988 39.2105ZM310.082 125.232C308.288 123.371 309.347 120.376 310.954 122.456C311.258 122.834 309.592 122.367 309.849 122.976C310.343 124.111 312.083 123.325 312.309 124.79C312.353 125.064 310.183 125.35 310.076 125.232C310.078 125.232 310.08 125.232 310.082 125.232ZM203.692 57.0265C203.696 56.9925 203.192 56.674 203.164 56.6943C202.51 57.1981 203.524 57.8391 203.692 57.0265ZM148.705 26.0731C148.71 25.9992 147.567 25.2426 147.499 25.2726C146.241 25.9675 148.564 27.51 148.705 26.0731ZM239.407 75.154C240.359 74.8421 241.072 75.1763 241.004 76.2623C240.486 75.8827 239.933 75.5328 239.407 75.154Z" fill="black"/>
<path d="M78.1894 139.969C78.134 137.952 76.1432 132.984 72.6327 129.119C69.3965 125.556 64.8759 122.004 60.824 119.579C57.3609 117.506 45.2174 116.248 37.1907 116.48C32.4746 116.617 32.1157 125.184 30.2493 139.872C29.8803 142.776 31.2818 143.259 32.4176 143.587C37.4078 145.029 43.9576 146.358 52.1615 149.163C57.4229 150.963 61.3998 151.788 65.0958 154.306C67.0774 155.656 68.7441 157.171 70.4212 158.406C72.2196 159.731 72.4077 162.379 72.4732 165.568C72.5855 171.03 70.272 175.541 67.6058 177.859C62.0545 182.685 54.2343 184.759 46.9762 185.97C42.6622 186.69 38.8864 186.037 36.3139 185.183C34.4677 181.401 33.0308 177.175 34.1844 169.935C34.8153 168.982 35.706 169.771 36.4872 171.574" stroke="black" stroke-width="16" stroke-linecap="round"/>
<path d="M73.8116 113.12C75.6479 114.373 79.3733 126.242 82.2011 137.629C84.1368 145.424 83.3818 151.081 85.3699 158.598C86.6807 163.553 86.8581 167.398 87.5883 168.18C91.4269 172.291 91.6073 157.322 94.6666 152.186C96.4189 149.244 99.5518 145.959 103.446 143.301C105.034 142.216 106.134 142.142 107.351 144.303C114.851 157.627 113.399 170.014 116.862 174.225C117.536 175.045 118.792 174.834 120.064 174.177C123.182 172.564 126.025 168.785 128.669 165.454C130.673 162.931 131.215 158.073 131.362 153.379C131.408 151.923 129.988 152.473 129.205 153.208C127.687 154.634 126.696 156.733 125.343 159.227C121.513 166.287 127.85 175.032 134.252 182.162C139.152 187.62 146.802 184.082 149.191 182.569C155.255 178.728 156.735 173.014 167.391 150.503C174.248 136.017 173.082 120.433 171.431 114.139C169.29 105.982 167.188 99.7553 165.816 95.0239C164.743 91.3229 163.4 88.1197 162.434 87.805C159.138 86.7311 162.203 96.6663 163.74 102.581C165.382 108.899 166.674 125.112 170.478 147.475C174.687 172.218 177.318 177.484 177.703 182.09C177.87 183.294 178.344 184.692 178.656 184.921C178.967 185.151 179.102 184.17 179.241 183.16" stroke="black" stroke-width="16" stroke-linecap="round"/>
<path d="M192.648 93.1472C192.567 96.1543 194.468 101.776 197.983 116.529C199.112 121.27 200.798 126.471 202.526 135.945C207.956 174.981 208.5 180.779 209.082 183.883C209.235 185.262 209.1 186.242 208.961 187.253" stroke="black" stroke-width="16" stroke-linecap="round"/>
<path d="M176.364 145.414C177.672 145.594 178.98 145.774 180.634 146.002C182.289 146.23 184.25 146.5 193.027 145.877C201.804 145.254 217.338 143.729 235.459 141.44" stroke="black" stroke-width="16" stroke-linecap="round"/>
<path d="M228.632 161.698C235.156 158.225 240.305 154.927 242.6 150.681C243.029 149.888 241.502 149.015 240.39 148.519C238.095 147.495 235.551 148.175 233.371 149.384C231.006 150.695 228.79 153.291 226.71 156.194C224.96 158.635 224.265 164.084 224.01 170.772C223.904 173.55 225.423 175.025 226.472 176.022C228.456 177.481 233.58 179.197 241.845 181.344C245.949 182.253 249.872 182.793 256.168 181.641" stroke="black" stroke-width="16" stroke-linecap="round"/>
<path d="M257.153 152.503C257.739 157.924 261.01 173.163 262.888 182.875C263.221 184.602 263.35 185.638 263.944 182.571C267.782 162.752 269.846 155.624 272.669 152.127C274.161 150.278 277.32 152.585 279.91 154.446C284.347 157.633 286.845 161.63 287.727 163.765C288.553 165.764 288.075 169.854 287.528 173.822C287.522 173.866 287.559 171.176 287.54 167.651C287.623 165.805 287.893 163.843 288.171 161.822" stroke="black" stroke-width="16" stroke-linecap="round"/>
</svg>
