<svg width="361" height="77" viewBox="0 0 361 77" fill="none" xmlns="http://www.w3.org/2000/svg">
<path d="M2.36691 3H358.367V74H2.36691V3Z" fill="#F5F5F5"/>
<path d="M2.40908 0.371038C8.06622 0.0516429 13.7159 -0.0848572 19.5351 0.0542564C20.8611 0.0857151 20.7361 0.332575 21.2812 0.372503C22.2831 0.446244 23.9645 0.17987 24.2002 0.17987C25.663 0.176476 25.0914 0.608554 25.2883 0.625196C27.4832 0.800616 26.8515 0.308463 28.95 0.261172C31.6828 0.199469 35.1895 0.287504 38.4822 0.31171C39.6385 0.321388 39.1237 0.650324 41.6194 0.622632C43.3874 0.603273 48.8107 0.228367 51.3079 0.628858C51.3226 0.780084 51.0073 0.947049 50.8747 1.10311C54.4544 0.472824 55.7357 0.500476 60.8108 0.654127C61.6138 0.678326 62.374 0.419378 63.7884 0.514963C65.2021 0.610628 65.2619 1.00981 68.1049 1.00497C69.1133 1.00229 69.7252 0.720788 71.2715 0.708694C75.6693 0.67362 84.0451 1.02326 87.6547 1.03536C94.7631 1.05955 98.6308 0.579107 104.944 0.746049C105.43 0.758148 104.362 1.06666 105.253 1.07272C106.152 1.07877 107.088 0.670032 107.309 0.660353C109.695 0.555147 114.738 1.10271 116.066 1.03646C119.292 0.87433 116.113 0.694209 120.584 0.616772C124.842 0.543084 130.72 1.07524 134.941 1.17929C139.832 1.3002 141.409 0.527204 145.092 1.3342C158.027 1.28702 171.014 1.25814 183.964 1.21701C183.927 1.37788 183.884 1.53882 183.84 1.69969C184.864 1.58838 185.888 1.4769 186.912 1.36679C186.757 1.48654 186.61 1.60642 186.456 1.72496C191.265 1.26288 195.552 1.02451 201.171 1.15146C201.281 1.15386 200.992 1.47462 201.083 1.48289C202.35 1.54338 203.766 1.29663 204.878 1.35471C207.567 1.49385 212.134 2.19327 210.123 1.33786C216.392 1.51448 223.758 1.22527 229.732 1.39096C232.317 1.46233 233.091 1.96928 234.328 1.99853C235.565 2.02753 234.935 1.59192 235.374 1.57517C238.011 1.47838 242.351 1.49636 242.808 1.98388C243.339 1.78914 243.9 1.59204 244.437 1.39609C244.122 1.93664 252.271 1.71321 254.409 1.72642C254.8 1.72884 254.854 1.96579 255.149 1.96337C258.433 1.93302 259.236 1.56163 262.049 1.43821C263.036 1.39465 261.505 1.81222 264.039 1.63194C264.26 1.6161 264.143 1.24096 267.17 1.24338C272.002 1.247 281.247 1.09821 287 1.2833C287.471 1.29781 286.036 1.70675 288.192 1.61143C288.973 1.57755 288.599 1.28718 290.492 1.28476C297.829 1.27267 305.652 1.60651 313.137 1.32944C312.864 1.65732 310.198 2.02512 314.205 1.81944C314.846 1.78549 314.368 1.49267 314.655 1.48179C316.982 1.39717 319 1.60634 321.519 1.49387C322.263 1.45999 322.448 1.23007 323.376 1.17563C324.746 1.0946 325.352 1.42243 326.943 1.2833C329.432 1.06431 329.816 0.753543 332.902 1.36313C341.405 1.3443 349.89 1.29405 358.367 1.27826L360.076 1.26625L360.089 3C360.105 11.9559 360.084 20.9037 359.946 29.8574C360.12 34.8959 360.314 39.5453 360.381 44.7974C360.4 46.3443 359.984 46.6401 360.122 49.1074C360.152 49.6599 360.599 53.6019 359.758 54.1765C359.831 55.2737 359.833 55.9671 359.878 56.9098C360.001 56.1952 360.126 55.4578 360.251 54.7727C360.116 58.7506 360.413 61.9988 360.553 65.52C360.656 68.1122 360.295 66.2716 360.332 67.8623C360.367 69.4534 360.448 70.177 360.016 72.1658C360.222 72.8109 360.283 73.3667 360.283 74L360.296 75.9024L358.367 75.9159C357.467 75.9158 356.412 75.7923 354.722 75.7845C354.412 75.7833 352.623 75.9765 351.128 75.9379C350.053 75.9101 349.734 75.5993 348.027 75.6475C347.747 75.6547 344.136 76.0398 342.987 76.0749C341.197 76.1305 338.352 75.7322 338.006 75.7273C332.976 75.6572 331.036 76.0505 327.464 75.4032C326.742 75.7879 323.761 76.013 321.352 75.9756C318.31 75.9284 312.21 75.1419 311.377 75.9731C307.856 75.6029 308.239 75.8313 304.064 75.8387C300.263 75.8459 290.2 75.528 287.12 75.5739C284.041 75.6186 285.541 76.0809 284.318 76.1426C282.317 76.2452 283.398 75.9041 282.028 75.909C278.154 75.9235 274.786 75.9887 271.089 76.1375C270.89 75.898 270.676 75.6573 270.47 75.4179C270.278 75.4977 270.088 75.5776 269.896 75.6574C269.101 75.655 268.209 75.6599 267.472 75.6526C273.688 76.7039 261.469 75.5749 257.8 75.5482C254.706 75.5265 249.556 76.025 246.16 76.1327C245.336 76.1592 245.903 75.9005 245.733 75.9064C243.745 75.9802 243.443 76.1569 240.769 76.1327C239.355 76.1194 237.911 75.7954 236.534 75.7892C226.42 75.7457 216.659 76.0713 206.611 76.1064C204.902 76.1124 203.428 75.7168 201.992 75.7083C199.937 75.6962 198.64 76.0201 196.711 76.0251C194.788 76.0299 192.017 75.6428 190.713 75.7021C189.409 75.7601 191.641 76.1352 189.254 76.0324C188.158 75.9851 190.094 75.7058 188.739 75.6973C184.511 75.6707 178.544 76.0166 174.043 75.6815C174.242 75.765 174.514 75.8401 174.757 75.92C169.961 75.8873 165.725 75.6864 160.775 75.6574C159.043 75.6466 155.921 75.8918 154.22 75.8907C152.519 75.8895 151.745 75.6234 150.382 75.616C149.822 75.6124 150.041 75.8508 149.666 75.846C144.967 75.783 142.389 75.3585 137.469 75.4069C119.443 75.5835 100.855 75.7361 82.5494 75.8958C81.8133 75.9021 81.318 76.2128 80.2429 76.2587C78.5871 76.3298 78.5059 76.0552 78.285 76.0456C76.8416 75.9851 77.4304 76.2393 75.4931 76.2393C71.2279 76.2393 64.3475 76.0141 60.097 76.0335C50.2997 76.0783 42.064 76.3204 32.4582 76.4426C31.7657 76.4522 32.2353 76.0845 31.0346 76.0796C22.5717 76.041 20.7804 76.3931 10.2469 76.2939C7.99299 76.2726 5.31119 76.2458 2.36691 76.2161L0.166481 76.2316L0.150803 74C0.25972 63.1833 0.405913 48.8246 0.445857 39.1317C0.446711 39.1317 0.447566 39.1317 0.44842 39.1317C-0.231499 35.25 -0.0623879 30.2276 0.451716 26.0584C1.57287 42.1334 1.61089 57.7441 1.53282 74L1.53872 74.8399L2.36691 74.8341C10.4258 74.8728 18.6433 74.94 27.1546 74.918C54.1451 74.849 82.9182 73.6305 110.27 73.7962C112.841 73.812 113.873 74.1992 116.039 74.1181C116.405 74.1044 115.457 73.806 116.583 73.7757C132.053 73.3692 148.546 74.0494 163.736 73.8607C167.831 73.8099 168.474 73.4771 172.076 73.3912C171.442 73.5484 171.028 73.7129 170.476 73.8713C186.918 74.3625 203.384 74.1436 220.04 74.2137C220.791 74.2174 220.887 74.543 221.675 74.5551C223.251 74.5804 224.761 74.2223 226.138 74.2101C227.936 74.1943 228.247 74.4533 229.904 74.4364C230.713 74.4277 230.471 74.1788 232.23 74.2211C232.377 74.2247 232.474 74.4858 233.644 74.4521C236.848 74.359 243.397 74.1399 246.049 74.0746C249.437 73.9911 252.156 74.3845 253.438 74.41C256.9 74.479 256.828 74.0762 259.758 74.076C280.62 74.0736 300.564 74.5319 321.919 74.5283C323.261 74.5281 328.223 74.0797 330.705 74.0976C331.537 74.1049 335.888 74.2234 336.54 74.2331C339.185 74.2707 341.47 74.5418 342.929 74.5986C345.757 74.7098 348.918 74.2865 350.457 74.2441C352.759 74.1803 356.581 74.2112 358.367 74.2285L358.597 74.2268L358.595 74C358.598 73.6884 358.601 73.4388 358.603 73.2702C358.629 70.5298 359.153 71.4352 359.031 69.4684C358.994 68.8873 358.593 69.4959 358.593 67.4486C358.594 65.7332 358.896 65.0393 358.951 63.8683C359.005 62.6973 358.537 60.5488 358.549 59.8189C358.615 56.0031 358.921 54.3144 358.937 50.1597C358.949 46.7099 358.734 30.763 358.624 29.4371C358.132 23.4993 358.353 33.3883 358.336 33.9459C358.241 36.9587 358.052 36.5179 358.413 39.5231C357.301 42.212 359.032 51.5828 357.713 53.9843C358.591 56.4668 358.149 58.5525 357.972 61.1676C357.728 64.7822 358.24 62.0296 358.243 64.6665C358.244 65.7061 357.845 68.7184 357.901 70.2796C357.951 71.6835 358.204 72.3567 358.266 74L358.367 73.8994C358.183 73.9064 357.988 73.911 357.777 73.9127C354.043 73.9441 351.037 73.8013 347.9 73.4348C347.325 73.5969 346.789 73.759 346.222 73.9211C344.056 73.7469 341.882 73.5737 339.716 73.4007C340.063 73.5423 340.409 73.6851 340.756 73.8266C340.122 73.8472 339.487 73.8666 338.853 73.886C336.746 73.673 334.734 73.4759 332.569 73.2557C326.684 74.0746 328.392 73.3658 325.122 73.2594C321.852 73.153 319.959 73.6271 317.433 73.6296C314.03 73.6332 312.467 73.6924 309.035 73.6585C307.046 73.6392 303.672 73.1818 306.442 73.9065C300.232 73.9645 291.73 74.1668 286.175 73.8728C284.535 73.787 286.722 73.5587 286.442 73.5304C285.05 73.3961 283.878 73.7661 282.442 73.7131C280.055 73.6248 275.408 73.3367 273.529 73.2689C270.825 73.1709 266.575 73.6502 266.14 73.6853C263.71 73.88 263.06 73.482 262.28 73.5095C257.838 73.6692 256.857 73.8363 255.458 72.9968C254.308 73.3598 249.491 73.9705 248.327 73.3597C248.297 73.9113 244.298 73.8184 241.837 73.9563C241.38 73.7966 240.916 73.6378 240.459 73.4769C235.325 74.4642 225.101 73.747 218.346 73.6296C218.176 73.6272 217.873 74.0407 216.857 73.9475C216.792 73.9398 216.897 73.754 216.215 73.73C213.968 73.6525 205.395 73.1883 204.409 73.1843C200.777 73.1686 200.142 73.4771 197.932 73.5062C195.023 73.5449 194.603 73.2664 191.834 73.3062C190.538 73.3244 189.358 73.6909 187.319 73.6391C186.111 73.6089 185.992 73.321 185.035 73.2978C181.632 73.2143 179.132 73.396 176.112 73.021C175.324 73.9367 173.88 73.2617 172.385 73.1927C166.315 72.9108 158.751 73.2978 153.542 73.2143C137.292 72.9518 122.883 72.387 107.009 72.2599C104.43 72.2394 103.809 72.6992 101.106 72.6701C99.8904 72.6566 98.6375 72.3237 96.649 72.3189C95.0509 72.3141 92.7611 72.4834 90.7655 72.4822C90.2351 72.4822 90.1878 72.1701 89.407 72.1677C83.4848 72.1496 77.7018 72.3712 71.7206 72.5236C69.504 72.5803 68.1328 72.1667 68.5085 72.8865C67.6614 72.7099 66.8379 72.5561 66.0424 72.3819C62.9926 72.8356 60.5019 72.3628 56.3766 72.4789C55.9319 72.4928 52.8172 72.9904 51.0502 72.6313C50.9251 72.8877 51.1994 73.1055 51.1479 73.3377C49.4024 73.4357 46.7203 73.1395 45.5413 73.1092C44.3641 73.079 43.5761 73.4121 43.2218 73.4154C41.8737 73.4238 42.188 72.9857 42.0849 72.9785C35.8022 72.5587 36.4635 72.7921 32.67 73.4491C31.7195 73.6148 25.2699 73.1335 23.9653 73.6523C23.9065 73.4407 24.266 73.2544 24.3692 73.0524C22.4317 72.998 20.4794 72.9421 18.5346 72.8876C18.9471 73.0909 19.4424 73.2944 19.8181 73.4989C15.8482 73.3222 12.547 73.8012 9.29886 73.7856C7.4425 73.7759 7.66888 73.3269 6.57864 73.4249C6.36523 73.4443 6.72597 73.7477 6.09323 73.7721C4.67167 73.8264 3.46993 73.8414 2.36691 73.8335L2.53346 74C2.55441 71.0963 2.73484 68.8763 2.77869 65.1286C2.80758 62.7054 2.25608 60.5846 2.61901 57.108C2.653 56.7906 3.1427 53.38 2.44103 51.2734C2.66245 50.603 2.77876 50.0119 2.96509 49.5109C1.92333 45.2457 2.9443 46.4244 3.18629 40.6564C3.31204 37.6716 3.1295 27.6322 3.0182 24.3839C2.95038 22.4492 2.54091 22.4845 2.52453 22.1393C2.43017 20.0769 2.82705 20.0753 2.76184 18.1681C2.6965 16.2602 2.24754 13.8499 2.28868 11.8904C2.32037 10.3894 2.81349 11.5726 2.64172 9.35587C2.60454 8.89675 2.18606 10.2086 2.35021 7.87034C2.37562 7.50202 2.82827 3.76614 2.92627 3C3.18883 4.96707 3.53137 10.6688 3.63784 12.8124C4.41272 28.3656 4.86451 50.5662 5.11062 74L2.36691 71.2563C34.5506 70.9183 69.0601 70.9682 91.8699 71.102C95.5304 71.1226 97.9242 71.5533 100.311 71.5909C102.697 71.6284 100.68 71.2337 102.845 71.2664C105.011 71.3003 106.589 71.5787 108.615 71.6029C122.271 71.7675 136.031 71.9416 149.578 72.0179C153.092 72.0372 155.9 71.7165 159.097 71.7165C160.341 71.7167 160.379 72.1303 161.263 72.1266C170.788 72.0939 179.599 71.6959 189.071 71.7443C193.005 71.7649 197.255 72.1134 201.151 72.146C204.362 72.1739 207.692 71.9356 210.579 71.9307C212.146 71.9271 212.973 72.2421 213.54 72.2669C215.515 72.3492 214.825 71.9644 215.834 71.9644C218.618 71.9657 220.003 72.4303 222.61 72.394C223.633 72.3795 223.502 72.0834 224.988 72.0373C226.873 71.9792 226.176 72.2523 227.523 72.2621C227.604 72.2634 227.34 72.0517 228.054 72.0431C232.65 71.9875 238.39 71.8206 242.824 71.8351C251.995 71.8642 261.048 72.272 269.593 72.3519C271.752 72.3712 271.179 72.0953 271.864 72.082C275.163 72.0191 276.342 72.3492 279.797 72.2306C280.371 72.2112 282.685 71.8292 284.895 71.9259C286.088 71.9781 287.443 72.2164 288.459 72.272C289.475 72.3277 289.638 71.9767 290.86 71.9765C293.084 71.9753 292.438 72.2185 295.619 72.175C296.901 72.158 301.18 71.8256 304.481 71.8509C309.873 71.892 316.556 72.1958 322.913 72.2006C325.093 72.203 327.894 71.8424 331.276 71.8388C335.408 71.834 343.023 71.916 347.258 71.9208C349.424 71.9232 349.58 72.301 349.838 72.3167C351.494 72.4218 350.826 71.9998 351.936 72.0164C353.461 72.0394 354.884 72.3507 356.269 72.3713C357.152 72.3844 357.293 72.0734 357.484 72.071C357.78 72.0667 358.074 72.0626 358.367 72.0588L356.426 74C356.337 67.2725 356.363 61.241 356.33 54.4925C356.249 37.3778 356.123 20.189 356.026 3L358.367 5.34138C337.624 5.45863 316.881 5.53336 296.268 5.43478C293.108 5.42026 292.989 5.02811 290.212 5.0898C287.435 5.1503 284.752 5.99725 282.468 5.06197C282.395 5.25072 282.402 5.38529 282.328 5.5571C276.59 5.29097 270.851 5.56644 265.238 5.60031C261.084 5.62571 257.4 5.59561 253.562 5.57504C250.161 5.55561 250.454 5.22675 247.509 5.65598C232.872 5.38737 218.078 5.45277 203.565 5.0063C200.162 5.70928 196.9 5.26637 192.193 5.16231C191.612 5.14915 192.235 5.40565 190.512 5.38388C188.347 5.35709 187.227 4.96521 183.582 4.98689C182.617 4.99294 175.47 5.42742 172.825 5.20479C170.181 4.9822 166.35 4.85155 163.603 4.63862C163.993 4.80677 164.487 4.96764 164.922 5.13338C163.552 5.16242 162.174 5.1904 160.804 5.21944C160.605 5.01738 160.406 4.81515 160.215 4.61188C159.419 4.80425 158.623 4.99425 157.82 5.18905C156.089 4.15104 157.864 4.4896 154.012 4.75214C152.082 4.88282 150.55 4.70146 148.568 4.80671C147.854 4.8454 147.397 5.15105 146.61 5.19014C144.681 5.2845 145.805 4.86381 144.613 4.86604C143.412 4.86967 141.689 5.33175 139.538 5.12606C141.783 4.30226 135.293 4.571 134.983 5.21102C134.211 5.2122 133.563 5.1856 132.709 5.2037C133.498 3.58721 129.451 4.73434 127.846 4.95576C126.241 5.17686 126.306 4.74253 125.93 4.75947C124.848 4.80668 125.636 4.98703 124.878 4.99312C119.854 5.02942 115.123 4.76426 110.166 4.74006C109.453 4.73662 110.085 4.98206 109.254 4.95796C108.421 4.93376 107.623 4.68943 106.393 4.70637C106.063 4.71066 105.959 4.92627 105.445 4.92647C94.6681 4.91679 84.4352 4.7331 73.4444 4.70527C72.45 4.70285 71.6692 5.0862 69.7468 5.07295C67.8245 5.05965 64.9076 4.71369 62.5211 4.68696C61.8876 4.6797 61.7158 4.99902 60.876 4.99055C58.0182 4.96146 55.5566 4.70147 52.5882 4.65912C47.5724 4.5878 42.3207 4.78261 37.2312 4.59394C36.2663 4.55885 36.4205 4.29253 35.029 4.21746C32.6275 4.088 33.5312 4.47636 33.045 4.52838C31.4544 4.69644 30.9546 4.18028 29.4158 4.31304C29.1806 4.33357 29.5162 4.63968 29.3051 4.64447C26.0343 4.69771 25.8626 3.98029 22.3856 4.36505C19.2936 3.95255 24.4582 3.81203 24.9886 3.59305C26.2839 3.06077 22.8597 2.43527 20.8414 2.23437C19.1033 2.06139 19.1161 2.39279 18.4242 2.39295C14.7633 2.39416 9.31165 2.45717 6.52688 2.29993C4.83995 2.20555 7.88069 2.0675 7.0188 1.95861C6.16456 1.84986 5.61154 2.09892 4.73512 1.82677C3.8585 1.55453 2.07022 0.75338 2.40908 0.371038ZM309.96 2.15454C304.347 3.46122 289.461 3.32472 281.468 3.2001C274.838 3.09604 269.123 2.08924 270.493 3.54837C277.66 3.55804 283.457 3.4117 291.036 3.45645C291.824 3.46129 296.526 3.59669 298.161 3.62089C299.081 3.63424 299.111 3.87527 300.363 3.87285C300.636 3.87162 302.146 3.55675 302.699 3.56522C304.592 3.59312 310.22 4.0765 311.006 4.06255C313.186 4.02143 312.349 3.6468 313.29 3.57877C316.45 3.35372 316.798 3.91638 319.929 3.73368C320.489 3.70101 322.346 3.21068 324.666 3.27481C325.609 3.30147 327.215 3.55461 327.937 3.54251C331.87 3.47716 336.261 3.14188 339.863 3.19753C342.816 3.24358 342.022 3.62208 343.584 3.67289C345.145 3.72233 347.031 3.28337 348.099 3.25796C349.808 3.21814 351.885 3.46741 352.415 3.46378C354.438 3.44949 356.417 3.42712 358.367 3.3996L357.967 3C358.082 11.1207 358.286 18.7342 358.37 26.8602C358.543 20.0168 358.702 13.1812 358.881 6.38202C358.57 3.32365 358.737 3.89485 358.88 3L358.876 2.48349L358.367 2.48707C358.132 2.44952 357.797 2.41357 357.27 2.38819C355.259 2.29141 354.772 2.95541 352.129 2.88185C352.131 2.88185 352.133 2.88185 352.135 2.88185C350.772 2.84313 347.819 2.38331 344.916 2.57569C344.813 2.58302 344.555 2.92762 342.382 2.93971C337.498 2.96633 330.015 3.14311 324.519 3.06936C322.906 3.04758 323.235 2.68565 321.327 2.64088C319.935 2.6085 318.323 2.94314 316.144 2.8683C313.411 2.77272 312.1 2.19707 310.221 2.99685C310.066 2.7113 310.145 2.43282 309.96 2.15454ZM159.006 2.85036C158.622 2.81875 153.481 1.92603 155.005 2.87929C161.915 3.29309 169.386 3.08755 176.656 3.31985C174.174 2.37731 169.974 2.7488 164.876 2.81776C164.874 2.81776 164.872 2.81776 164.87 2.81776C164.629 2.82097 165.635 2.57464 164.267 2.61927C163.604 2.64105 161.061 3.01854 159.006 2.85036Z" fill="#2F2A2A"/>
<path d="M25.6549 42.724H24.9289L24.2689 42.02L24.0049 41.316C23.9902 41.2867 23.9829 41.25 23.9829 41.206C23.9829 41.162 23.9756 41.1107 23.9609 41.052C23.9462 40.964 23.9242 40.8613 23.8949 40.744C23.8802 40.612 23.8582 40.4507 23.8289 40.26C23.6822 39.556 23.5649 39.2993 23.4769 39.49C23.1836 40.106 22.8902 40.612 22.5969 41.008C22.3036 41.3893 22.0982 41.69 21.9809 41.91L21.8269 42.306L21.3649 43.296L19.0329 43.318L18.7469 43.45L17.9329 43.032C17.8742 42.8853 17.8082 42.7167 17.7349 42.526C17.6762 42.3353 17.6102 42.1227 17.5369 41.888C17.5076 41.8147 17.4489 41.7487 17.3609 41.69C17.2729 41.6167 17.1849 41.5507 17.0969 41.492C17.0236 41.4187 16.9649 41.3453 16.9209 41.272C16.8769 41.1987 16.8769 41.118 16.9209 41.03C16.9796 40.942 16.9796 40.854 16.9209 40.766C16.8769 40.6633 16.8109 40.5607 16.7229 40.458C16.6496 40.3553 16.5762 40.2673 16.5029 40.194C16.4442 40.106 16.4296 40.04 16.4589 39.996C16.6349 39.732 16.7302 39.5193 16.7449 39.358C16.7742 39.182 16.7596 39.028 16.7009 38.896C16.6569 38.7933 16.6056 38.7273 16.5469 38.698C16.4882 38.6687 16.4296 38.654 16.3709 38.654C16.3122 38.654 16.2536 38.654 16.1949 38.654C16.1509 38.6393 16.1142 38.6027 16.0849 38.544C16.0116 38.3973 15.9749 38.258 15.9749 38.126C15.9749 37.9793 15.9602 37.8987 15.9309 37.884C15.8576 37.8547 15.7769 37.84 15.6889 37.84C15.6009 37.8253 15.4762 37.7667 15.3149 37.664C15.0362 36.4173 14.5522 35.178 13.8629 33.946C13.6282 33.4767 13.4522 33.0367 13.3349 32.626C13.2176 32.2007 13.0636 31.9 12.8729 31.724V30.756C13.0049 30.668 13.1442 30.6093 13.2909 30.58C13.5696 30.536 13.7749 30.404 13.9069 30.184L14.7429 30.14C14.8016 30.1987 14.9042 30.228 15.0509 30.228C15.2122 30.228 15.3736 30.2207 15.5349 30.206C15.6962 30.1913 15.8429 30.1767 15.9749 30.162C16.1069 30.1473 16.1876 30.162 16.2169 30.206C16.4809 30.514 16.7889 30.756 17.1409 30.932C17.1262 31.02 17.1776 31.2473 17.2949 31.614C17.4122 31.966 17.5662 32.3987 17.7569 32.912C17.9476 33.4107 18.1602 33.946 18.3949 34.518C18.6296 35.09 18.8422 35.6473 19.0329 36.19C19.2382 36.718 19.4069 37.1947 19.5389 37.62C19.6856 38.0307 19.7662 38.324 19.7809 38.5C20.3236 39.468 20.6609 39.9813 20.7929 40.04C21.0129 40.1133 21.2329 40.0473 21.4529 39.842C21.6729 39.622 21.7682 39.2333 21.7389 38.676C21.7096 38.1333 21.7756 37.7007 21.9369 37.378C22.0982 37.0407 22.2229 36.7693 22.3109 36.564C22.2376 36.476 22.1862 36.3807 22.1569 36.278C22.1276 36.1607 22.0982 36.0507 22.0689 35.948C22.0542 35.8453 22.0322 35.7647 22.0029 35.706C21.9736 35.6327 21.9222 35.596 21.8489 35.596C21.8636 35.5813 21.8709 35.5667 21.8709 35.552C21.8709 35.5373 21.8782 35.5153 21.8929 35.486C21.9076 35.4567 21.9222 35.4127 21.9369 35.354C21.9516 35.2953 21.9589 35.2293 21.9589 35.156C21.9589 35.1267 21.9149 34.8773 21.8269 34.408C21.8122 34.2907 21.7976 34.1513 21.7829 33.99C21.7682 33.814 21.7536 33.638 21.7389 33.462C21.7389 33.286 21.7316 33.132 21.7169 33C21.7169 32.8533 21.7169 32.7433 21.7169 32.67C21.5996 32.4647 21.5189 32.2373 21.4749 31.988C21.4309 31.7387 21.3136 31.5113 21.1229 31.306C21.0936 31.262 21.0789 31.1887 21.0789 31.086C21.0789 30.9833 21.0862 30.8807 21.1009 30.778C21.1156 30.6753 21.1376 30.5433 21.1669 30.382L21.9589 30.272L22.1129 30.118C22.2009 30.03 22.3402 29.9713 22.5309 29.942C22.6336 29.942 22.7876 29.9347 22.9929 29.92C23.1982 29.9053 23.4036 29.898 23.6089 29.898C23.8289 29.898 24.0196 29.92 24.1809 29.964C24.3569 30.008 24.4596 30.0813 24.4889 30.184C24.5036 30.2573 24.6356 30.3013 24.8849 30.316C24.9582 30.6973 25.0389 31.13 25.1269 31.614C25.2149 32.098 25.2956 32.5893 25.3689 33.088C25.4422 33.572 25.4936 34.0413 25.5229 34.496C25.5669 34.9507 25.5816 35.354 25.5669 35.706C25.6402 35.7647 25.6549 35.8233 25.6109 35.882C25.5816 35.9407 25.5742 36.0507 25.5889 36.212C25.6476 36.3 25.6916 36.4173 25.7209 36.564C25.7649 36.696 25.7869 36.7987 25.7869 36.872C25.7869 36.9307 25.7722 37.026 25.7429 37.158C25.7282 37.29 25.6769 37.4733 25.5889 37.708C25.5302 37.6933 25.4496 37.708 25.3469 37.752C25.2589 37.796 25.1709 37.862 25.0829 37.95C25.0096 38.0233 24.9436 38.1113 24.8849 38.214C24.8409 38.302 24.8336 38.39 24.8629 38.478C24.9656 38.6393 25.1269 38.764 25.3469 38.852C25.5816 38.9253 25.8016 38.9473 26.0069 38.918C26.1682 38.962 26.3076 38.962 26.4249 38.918C26.5422 38.8593 26.6376 38.7347 26.7109 38.544L27.9869 36.19L27.9429 35.376L29.5269 31.592L30.3629 30.426H31.4849L31.7049 30.69L31.9029 31.482L30.8249 33.858L29.9889 35.728L28.9329 37.642L27.2829 40.458L26.5129 41.668V42.108L25.6549 42.724ZM35.1876 43.846C35.0849 43.846 34.9016 43.8607 34.6376 43.89C34.3883 43.9047 34.2049 43.912 34.0876 43.912L33.6036 43.956L33.2296 43.692C33.2149 43.472 33.2296 43.2153 33.2736 42.922C33.3323 42.6287 33.3616 42.4013 33.3616 42.24C33.5376 42.24 33.5743 42.064 33.4716 41.712C33.3543 41.36 33.3103 41.0813 33.3396 40.876C33.3543 40.6413 33.3909 40.4433 33.4496 40.282C33.5083 40.106 33.5156 39.9813 33.4716 39.908C33.4423 39.82 33.4056 39.7247 33.3616 39.622C33.3176 39.5047 33.2809 39.3727 33.2516 39.226L33.5156 37.796C33.5743 37.576 33.6109 37.334 33.6256 37.07C33.6403 36.806 33.6476 36.542 33.6476 36.278C33.6623 35.9993 33.6843 35.728 33.7136 35.464C33.7429 35.1853 33.8016 34.9213 33.8896 34.672L33.9116 34.1C33.9263 34.0413 33.9629 33.9827 34.0216 33.924C34.0803 33.8653 34.1316 33.814 34.1756 33.77C34.2343 33.7113 34.2783 33.66 34.3076 33.616C34.3516 33.5573 34.3516 33.4913 34.3076 33.418C34.3369 33.2567 34.2856 33.1173 34.1536 33C34.0363 32.8827 33.9043 32.8167 33.7576 32.802C33.8163 32.6993 33.8603 32.5233 33.8896 32.274C33.9336 32.01 33.9629 31.7167 33.9776 31.394C34.0069 31.0713 34.0216 30.734 34.0216 30.382C34.0363 30.03 34.0436 29.7073 34.0436 29.414L34.5056 29.172C34.7549 29.1867 34.9896 29.2307 35.2096 29.304C35.4443 29.3627 35.7303 29.4287 36.0676 29.502C36.2436 29.5313 36.3976 29.5607 36.5296 29.59C36.6616 29.6047 36.7789 29.6267 36.8816 29.656L37.1896 30.074C37.1896 30.0887 37.1823 30.1253 37.1676 30.184C37.1676 30.2427 37.1603 30.3013 37.1456 30.36C37.1456 30.4187 37.1383 30.4773 37.1236 30.536C37.1236 30.58 37.1163 30.602 37.1016 30.602C37.0136 30.5873 36.9769 30.7193 36.9916 30.998V33.198C36.9036 33.286 36.8303 33.4033 36.7716 33.55C36.7129 33.682 36.6616 33.836 36.6176 34.012C36.5736 34.188 36.5296 34.3713 36.4856 34.562C36.4563 34.738 36.4269 34.9067 36.3976 35.068C36.6616 35.3027 36.8889 35.376 37.0796 35.288C37.2849 35.2 37.4243 35.0607 37.4976 34.87L38.7956 34.958H39.6316L40.0056 35.09C40.3576 35.2073 40.6729 35.332 40.9516 35.464C41.2449 35.596 41.5089 35.6987 41.7436 35.772L42.1396 36.74L42.1176 37.004C42.1029 37.0187 42.1396 37.202 42.2276 37.554C42.3156 37.8913 42.345 38.412 42.3156 39.116C42.2863 39.82 42.2643 40.48 42.2496 41.096C42.2349 41.712 42.2276 42.1373 42.2276 42.372C42.2276 42.3867 42.2423 42.4453 42.2716 42.548C42.3156 42.6507 42.3743 42.7607 42.4476 42.878L42.2936 43.12L41.8756 43.318C41.6703 43.3327 41.4429 43.3693 41.1936 43.428C40.9589 43.4867 40.7389 43.516 40.5336 43.516C40.4456 43.516 40.3723 43.4867 40.3136 43.428C40.2549 43.3547 40.1229 43.3253 39.9176 43.34L39.6096 43.076C39.6389 42.8853 39.6463 42.7313 39.6316 42.614C39.6169 42.482 39.5949 42.372 39.5656 42.284C39.5363 42.1813 39.5069 42.0933 39.4776 42.02C39.4483 41.9467 39.4336 41.8733 39.4336 41.8C39.4483 41.6973 39.4556 41.602 39.4556 41.514C39.4703 41.4113 39.4849 41.3013 39.4996 41.184C39.5289 40.9933 39.5583 40.7807 39.5876 40.546C39.6316 40.3113 39.6829 40.0547 39.7416 39.776C39.8003 39.4387 39.8149 39.138 39.7856 38.874C39.7709 38.5953 39.7783 38.3313 39.8076 38.082L39.0376 36.52C38.9789 36.5053 38.9203 36.4907 38.8616 36.476C38.8029 36.4613 38.7369 36.4393 38.6636 36.41C38.4289 36.3513 38.2309 36.3367 38.0696 36.366C37.9083 36.3807 37.7543 36.3953 37.6076 36.41C37.6076 36.454 37.5269 36.4173 37.3656 36.3C37.2189 36.168 37.0943 36.0433 36.9916 35.926C36.7423 35.7207 36.5589 35.684 36.4416 35.816C36.3389 35.9333 36.2509 36.0947 36.1776 36.3C36.1923 36.4613 36.2143 36.5713 36.2436 36.63C36.2876 36.6887 36.3316 36.7327 36.3756 36.762C36.4343 36.7767 36.4856 36.7767 36.5296 36.762C36.4563 36.8207 36.3976 36.9307 36.3536 37.092C36.3096 37.2387 36.2729 37.4073 36.2436 37.598C36.2289 37.774 36.2216 37.9647 36.2216 38.17C36.2363 38.3607 36.2583 38.5367 36.2876 38.698C36.3169 38.874 36.2949 39.1453 36.2216 39.512C36.1629 39.8787 36.1483 40.348 36.1776 40.92C36.1776 41.14 36.1703 41.3747 36.1556 41.624C36.1409 41.8587 36.1263 42.0933 36.1116 42.328C36.0969 42.548 36.0823 42.7533 36.0676 42.944C36.0529 43.12 36.0456 43.2593 36.0456 43.362V43.428C35.7669 43.6627 35.4809 43.802 35.1876 43.846ZM53.9232 38.28C53.6005 38.236 53.3145 38.2947 53.0652 38.456C52.9772 38.5 52.8892 38.544 52.8012 38.588C52.7132 38.6173 52.6252 38.6467 52.5372 38.676C52.4932 38.6907 52.4492 38.7053 52.4052 38.72C52.3612 38.7347 52.3245 38.7493 52.2952 38.764L49.2372 39.688C48.3865 39.4973 48.0859 39.6367 48.3352 40.106C48.3792 40.2087 48.4379 40.3627 48.5112 40.568C48.5845 40.7733 48.6432 40.92 48.6872 41.008C48.8779 41.0813 49.0759 41.1987 49.2812 41.36C49.4865 41.5067 49.6772 41.5947 49.8532 41.624L50.2492 41.58C50.3519 41.58 50.4912 41.5727 50.6672 41.558C50.8579 41.5433 51.0412 41.5213 51.2172 41.492C51.4079 41.448 51.5765 41.3967 51.7232 41.338C51.8845 41.2793 51.9945 41.206 52.0532 41.118C52.0972 41.0447 52.1632 40.9933 52.2512 40.964C52.3392 40.92 52.4272 40.8833 52.5152 40.854C52.5739 40.8393 52.6252 40.832 52.6692 40.832C52.7279 40.8173 52.7939 40.8027 52.8672 40.788L53.1092 41.646L52.8452 42.152C52.8305 42.1813 52.7792 42.218 52.6912 42.262C52.6179 42.2913 52.5299 42.3353 52.4272 42.394C52.3245 42.4527 52.2219 42.5113 52.1192 42.57C52.0312 42.614 51.9652 42.658 51.9212 42.702C51.8919 42.7313 51.8112 42.746 51.6792 42.746C51.5619 42.746 51.4225 42.746 51.2612 42.746C51.1145 42.746 50.9605 42.7533 50.7992 42.768C50.6379 42.7827 50.5132 42.812 50.4252 42.856C50.2199 42.9587 50.0585 43.0247 49.9412 43.054C49.8385 43.0833 49.7505 43.1053 49.6772 43.12C49.6039 43.1493 49.5525 43.142 49.5232 43.098C49.4939 43.0833 49.4425 43.076 49.3692 43.076C49.3252 43.076 49.2665 43.076 49.1932 43.076C49.1199 43.076 49.0465 43.0687 48.9732 43.054C48.7825 43.0393 48.6285 43.032 48.5112 43.032C48.3939 43.0173 48.3205 43.01 48.2912 43.01L46.1792 41.976C46.1352 41.536 45.9299 41.316 45.5632 41.316C45.4899 41.316 45.4019 41.2573 45.2992 41.14C45.1965 41.008 45.1085 40.8687 45.0352 40.722C44.9765 40.6487 44.9252 40.568 44.8812 40.48C44.8372 40.3773 44.7932 40.2673 44.7492 40.15L44.5512 37.642L44.7492 36.168C44.7639 36.1093 44.8079 36.036 44.8812 35.948C44.9692 35.8013 45.0792 35.5813 45.2112 35.288C45.2699 35.156 45.3872 35.0313 45.5632 34.914C45.7392 34.7967 45.9225 34.694 46.1132 34.606C46.3185 34.5033 46.5092 34.4153 46.6852 34.342C46.8759 34.254 47.0152 34.1807 47.1032 34.122C47.2792 34.1513 47.5359 33.9607 47.8732 33.55C47.9612 33.4473 48.0712 33.3667 48.2032 33.308C48.3352 33.2347 48.4672 33.176 48.5992 33.132C48.6725 33.1027 48.7532 33.0807 48.8412 33.066C48.9292 33.0513 49.0099 33.0367 49.0832 33.022L51.6572 33.352C51.8039 33.3813 51.9579 33.4253 52.1192 33.484C52.2365 33.5427 52.3539 33.616 52.4712 33.704C52.5885 33.792 52.6839 33.8947 52.7572 34.012C52.8599 34.2613 53.0065 34.4667 53.1972 34.628C53.3879 34.7747 53.5419 34.8773 53.6592 34.936L54.4732 36.388L54.2972 37.818L53.9232 38.28ZM50.6672 37.532L50.8432 37.4C50.8872 37.3707 50.9312 37.3413 50.9752 37.312C51.0192 37.268 51.0559 37.2387 51.0852 37.224C51.1879 37.1947 51.3052 37.136 51.4372 37.048C51.5692 36.96 51.6205 36.85 51.5912 36.718C51.5912 36.4687 51.4592 36.19 51.1952 35.882C50.9312 35.574 50.5865 35.354 50.1612 35.222C49.9559 35.1487 49.7579 35.112 49.5672 35.112C49.3765 35.112 49.1932 35.1267 49.0172 35.156C48.8559 35.1707 48.7019 35.1927 48.5552 35.222C48.4232 35.2513 48.3132 35.266 48.2252 35.266C47.8879 35.1927 47.6972 35.3467 47.6532 35.728C47.4332 36.0653 47.3232 36.4393 47.3232 36.85C47.3379 37.246 47.3819 37.6273 47.4552 37.994C47.4552 38.1993 47.4919 38.368 47.5652 38.5C47.6532 38.632 47.7559 38.7127 47.8732 38.742C47.9905 38.7713 48.1079 38.7493 48.2252 38.676C48.3572 38.588 48.4672 38.434 48.5552 38.214L50.6672 37.532ZM64.3916 33.66V34.672H63.8196L62.9836 35.332C62.2649 35.4347 61.6783 35.5813 61.2236 35.772C60.7689 35.948 60.5563 36.1973 60.5856 36.52C60.5563 36.5933 60.5416 36.6813 60.5416 36.784C60.5416 36.872 60.5929 36.916 60.6956 36.916L60.2556 39.116L60.0576 39.358V41.8L59.9256 43.032L59.4856 43.472L56.9776 43.296L56.4276 42.548L56.5816 42.152L56.4936 40.942L56.7576 38.72L56.9776 37.092C56.9776 37.048 56.9849 37.0113 56.9996 36.982C56.9996 36.9527 56.9996 36.916 56.9996 36.872C57.0143 36.828 57.0216 36.7913 57.0216 36.762C57.0949 36.7033 57.1389 36.5713 57.1536 36.366C57.1829 36.1607 57.1903 36.0287 57.1756 35.97C57.1756 35.8673 57.1683 35.772 57.1536 35.684C57.1536 35.596 57.1243 35.4053 57.0656 35.112C57.0509 35.024 56.9996 34.9213 56.9116 34.804C56.8383 34.672 56.7576 34.5547 56.6696 34.452L56.9556 33.77H57.3736L59.6396 33.352L60.1896 33.616C60.1456 33.8653 60.1383 34.078 60.1676 34.254C60.2116 34.4153 60.2703 34.54 60.3436 34.628C60.4316 34.716 60.5269 34.7747 60.6296 34.804C60.7323 34.8187 60.8203 34.804 60.8936 34.76L61.2896 34.54C61.3629 34.5107 61.3849 34.43 61.3556 34.298C61.3409 34.166 61.3483 33.9973 61.3776 33.792L64.1056 33.308L64.3916 33.66ZM74.849 38.28C74.5263 38.236 74.2403 38.2947 73.991 38.456C73.903 38.5 73.815 38.544 73.727 38.588C73.639 38.6173 73.551 38.6467 73.463 38.676C73.419 38.6907 73.375 38.7053 73.331 38.72C73.287 38.7347 73.2503 38.7493 73.221 38.764L70.163 39.688C69.3123 39.4973 69.0116 39.6367 69.261 40.106C69.305 40.2087 69.3636 40.3627 69.437 40.568C69.5103 40.7733 69.569 40.92 69.613 41.008C69.8036 41.0813 70.0016 41.1987 70.207 41.36C70.4123 41.5067 70.603 41.5947 70.779 41.624L71.175 41.58C71.2776 41.58 71.417 41.5727 71.593 41.558C71.7836 41.5433 71.967 41.5213 72.143 41.492C72.3336 41.448 72.5023 41.3967 72.649 41.338C72.8103 41.2793 72.9203 41.206 72.979 41.118C73.023 41.0447 73.089 40.9933 73.177 40.964C73.265 40.92 73.353 40.8833 73.441 40.854C73.4996 40.8393 73.551 40.832 73.595 40.832C73.6536 40.8173 73.7196 40.8027 73.793 40.788L74.035 41.646L73.771 42.152C73.7563 42.1813 73.705 42.218 73.617 42.262C73.5436 42.2913 73.4556 42.3353 73.353 42.394C73.2503 42.4527 73.1476 42.5113 73.045 42.57C72.957 42.614 72.891 42.658 72.847 42.702C72.8176 42.7313 72.737 42.746 72.605 42.746C72.4876 42.746 72.3483 42.746 72.187 42.746C72.0403 42.746 71.8863 42.7533 71.725 42.768C71.5636 42.7827 71.439 42.812 71.351 42.856C71.1456 42.9587 70.9843 43.0247 70.867 43.054C70.7643 43.0833 70.6763 43.1053 70.603 43.12C70.5296 43.1493 70.4783 43.142 70.449 43.098C70.4196 43.0833 70.3683 43.076 70.295 43.076C70.251 43.076 70.1923 43.076 70.119 43.076C70.0456 43.076 69.9723 43.0687 69.899 43.054C69.7083 43.0393 69.5543 43.032 69.437 43.032C69.3196 43.0173 69.2463 43.01 69.217 43.01L67.105 41.976C67.061 41.536 66.8556 41.316 66.489 41.316C66.4156 41.316 66.3276 41.2573 66.225 41.14C66.1223 41.008 66.0343 40.8687 65.961 40.722C65.9023 40.6487 65.851 40.568 65.807 40.48C65.763 40.3773 65.719 40.2673 65.675 40.15L65.477 37.642L65.675 36.168C65.6896 36.1093 65.7336 36.036 65.807 35.948C65.895 35.8013 66.005 35.5813 66.137 35.288C66.1956 35.156 66.313 35.0313 66.489 34.914C66.665 34.7967 66.8483 34.694 67.039 34.606C67.2443 34.5033 67.435 34.4153 67.611 34.342C67.8016 34.254 67.941 34.1807 68.029 34.122C68.205 34.1513 68.4616 33.9607 68.799 33.55C68.887 33.4473 68.997 33.3667 69.129 33.308C69.261 33.2347 69.393 33.176 69.525 33.132C69.5983 33.1027 69.679 33.0807 69.767 33.066C69.855 33.0513 69.9356 33.0367 70.009 33.022L72.583 33.352C72.7296 33.3813 72.8836 33.4253 73.045 33.484C73.1623 33.5427 73.2796 33.616 73.397 33.704C73.5143 33.792 73.6096 33.8947 73.683 34.012C73.7856 34.2613 73.9323 34.4667 74.123 34.628C74.3136 34.7747 74.4676 34.8773 74.585 34.936L75.399 36.388L75.223 37.818L74.849 38.28ZM71.593 37.532L71.769 37.4C71.813 37.3707 71.857 37.3413 71.901 37.312C71.945 37.268 71.9816 37.2387 72.011 37.224C72.1136 37.1947 72.231 37.136 72.363 37.048C72.495 36.96 72.5463 36.85 72.517 36.718C72.517 36.4687 72.385 36.19 72.121 35.882C71.857 35.574 71.5123 35.354 71.087 35.222C70.8816 35.1487 70.6836 35.112 70.493 35.112C70.3023 35.112 70.119 35.1267 69.943 35.156C69.7816 35.1707 69.6276 35.1927 69.481 35.222C69.349 35.2513 69.239 35.266 69.151 35.266C68.8136 35.1927 68.623 35.3467 68.579 35.728C68.359 36.0653 68.249 36.4393 68.249 36.85C68.2636 37.246 68.3076 37.6273 68.381 37.994C68.381 38.1993 68.4176 38.368 68.491 38.5C68.579 38.632 68.6816 38.7127 68.799 38.742C68.9163 38.7713 69.0336 38.7493 69.151 38.676C69.283 38.588 69.393 38.434 69.481 38.214L71.593 37.532ZM83.1454 34.958L84.0914 33.44C84.15 33.44 84.2087 33.44 84.2674 33.44C84.326 33.4253 84.392 33.4107 84.4654 33.396C84.5827 33.3813 84.7367 33.3593 84.9274 33.33C85.118 33.3007 85.338 33.2713 85.5874 33.242C86.5847 33.1247 86.9514 32.8827 86.6874 32.516L89.8334 32.054H90.6474L90.8014 32.23L90.8894 32.956L90.5154 33.242L89.4154 33.264L87.9854 33.968L86.4014 34.474L86.1374 35.068L86.6434 36.3L87.2594 36.388L87.5454 37.026L88.0734 36.982L88.3814 37.356C88.5134 37.312 88.6454 37.2827 88.7774 37.268C88.9094 37.2387 89.0267 37.2387 89.1294 37.268C89.2027 37.2827 89.2834 37.2973 89.3714 37.312C89.4594 37.312 89.562 37.3267 89.6794 37.356C89.826 37.4 89.9287 37.4513 89.9874 37.51C90.046 37.554 90.0974 37.598 90.1414 37.642C90.1854 37.6713 90.2367 37.7007 90.2954 37.73C90.354 37.7593 90.4567 37.774 90.6034 37.774C90.6474 37.862 90.728 37.95 90.8454 38.038C90.9774 38.126 91.1167 38.214 91.2634 38.302C91.4247 38.39 91.5787 38.478 91.7254 38.566C91.8867 38.654 92.004 38.742 92.0774 38.83C92.1067 38.8593 92.1214 38.8813 92.1214 38.896C92.136 38.9107 92.158 38.9327 92.1874 38.962L92.3194 40.018L91.8354 41.338L91.7034 42.262L90.6254 42.812L88.8434 43.516L87.7654 43.362C87.384 43.3033 87.0467 43.3033 86.7534 43.362C86.46 43.4207 86.1887 43.45 85.9394 43.45H83.5194L83.2554 42.79L83.4314 42.152L86.6214 41.822L87.6774 41.69L88.9974 40.282L88.7994 39.644L87.8314 39.468L86.1374 39.006L85.8514 39.16L84.9274 38.742L84.3334 38.346L83.6514 36.85L83.1454 35.86V34.958ZM94.33 35.486C94.2713 35.3247 94.2273 35.112 94.198 34.848C94.1686 34.5693 94.1393 34.3347 94.11 34.144L94.528 33.352C94.792 33.308 94.9753 33.2933 95.078 33.308C95.1953 33.3227 95.2833 33.3447 95.342 33.374C95.43 33.3593 95.5546 33.3447 95.716 33.33C95.892 33.3007 96.156 33.2567 96.508 33.198C96.5373 32.9487 96.5886 32.67 96.662 32.362C96.7353 32.054 96.7866 31.7093 96.816 31.328L96.508 31.02L96.486 30.69L96.728 30.118H99.368L100.358 30.162C100.461 30.2793 100.505 30.4187 100.49 30.58C100.475 30.7267 100.446 30.866 100.402 30.998C100.358 31.13 100.314 31.24 100.27 31.328C100.241 31.4013 100.248 31.4233 100.292 31.394V32.758C100.204 32.8313 100.138 32.9193 100.094 33.022C100.05 33.11 100.013 33.2127 99.984 33.33L100.028 33.374L101.304 33.33C101.348 33.3447 101.392 33.3593 101.436 33.374C101.48 33.3887 101.531 33.4033 101.59 33.418C101.766 33.462 101.993 33.484 102.272 33.484L102.47 33.704L102.228 34.76C102.14 34.76 102.023 34.7747 101.876 34.804C101.729 34.8187 101.575 34.8407 101.414 34.87C101.267 34.8847 101.128 34.8993 100.996 34.914C100.879 34.9287 100.798 34.936 100.754 34.936L99.83 35.2C99.7713 35.3613 99.7273 35.5007 99.698 35.618C99.6833 35.7207 99.676 35.8233 99.676 35.926C99.676 36.014 99.676 36.1167 99.676 36.234C99.6906 36.3367 99.698 36.4687 99.698 36.63L99.544 39.424C99.5 39.6733 99.4853 39.9007 99.5 40.106C99.5293 40.3113 99.566 40.4873 99.61 40.634C99.6393 40.7073 99.6686 40.7807 99.698 40.854C99.7273 40.9273 99.7566 41.0007 99.786 41.074L99.984 41.646L100.072 41.756L102.206 41.096L103.02 40.898L103.504 41.338L102.976 42.042L102.47 42.306L102.03 42.394L99.5 43.516C99.4266 43.516 99.368 43.5087 99.324 43.494C99.2506 43.494 99.1626 43.494 99.06 43.494C98.972 43.4793 98.8693 43.4647 98.752 43.45C98.224 43.406 97.828 43.4207 97.564 43.494C97.564 43.0833 97.4026 42.8047 97.08 42.658C96.9186 42.5553 96.772 42.4673 96.64 42.394C96.5226 42.3207 96.4126 42.262 96.31 42.218C96.31 41.9687 96.31 41.8 96.31 41.712C96.3246 41.624 96.31 41.5067 96.266 41.36C96.2366 41.2867 96.2293 41.1253 96.244 40.876C96.2586 40.612 96.2733 40.282 96.288 39.886C96.3173 39.4753 96.3026 39.1453 96.244 38.896C96.1853 38.632 96.0973 38.5 95.98 38.5C95.9946 38.3093 96.002 38.1187 96.002 37.928C96.0166 37.7373 96.0313 37.5687 96.046 37.422C96.0606 37.3487 96.068 37.268 96.068 37.18C96.068 37.092 96.068 37.0113 96.068 36.938C96.0973 36.8793 96.1193 36.8353 96.134 36.806C96.1486 36.762 96.1633 36.7327 96.178 36.718C96.1926 36.6887 96.2586 36.652 96.376 36.608C96.508 36.5493 96.6253 36.3953 96.728 36.146C97.0653 35.9113 97.212 35.6987 97.168 35.508C97.124 35.3173 96.8673 35.1853 96.398 35.112C96.2953 35.1267 96.2073 35.156 96.134 35.2C96.0753 35.2293 96.046 35.31 96.046 35.442L94.726 35.728L94.33 35.486ZM113.462 33.66V34.672H112.89L112.054 35.332C111.335 35.4347 110.749 35.5813 110.294 35.772C109.839 35.948 109.627 36.1973 109.656 36.52C109.627 36.5933 109.612 36.6813 109.612 36.784C109.612 36.872 109.663 36.916 109.766 36.916L109.326 39.116L109.128 39.358V41.8L108.996 43.032L108.556 43.472L106.048 43.296L105.498 42.548L105.652 42.152L105.564 40.942L105.828 38.72L106.048 37.092C106.048 37.048 106.055 37.0113 106.07 36.982C106.07 36.9527 106.07 36.916 106.07 36.872C106.085 36.828 106.092 36.7913 106.092 36.762C106.165 36.7033 106.209 36.5713 106.224 36.366C106.253 36.1607 106.261 36.0287 106.246 35.97C106.246 35.8673 106.239 35.772 106.224 35.684C106.224 35.596 106.195 35.4053 106.136 35.112C106.121 35.024 106.07 34.9213 105.982 34.804C105.909 34.672 105.828 34.5547 105.74 34.452L106.026 33.77H106.444L108.71 33.352L109.26 33.616C109.216 33.8653 109.209 34.078 109.238 34.254C109.282 34.4153 109.341 34.54 109.414 34.628C109.502 34.716 109.597 34.7747 109.7 34.804C109.803 34.8187 109.891 34.804 109.964 34.76L110.36 34.54C110.433 34.5107 110.455 34.43 110.426 34.298C110.411 34.166 110.419 33.9973 110.448 33.792L113.176 33.308L113.462 33.66ZM126.04 34.1L125.622 37.18L125.688 38.434L125.578 39.754L125.248 41.03L123.972 42.922C123.415 43.3473 122.813 43.6333 122.168 43.78C121.523 43.9267 120.826 43.9633 120.078 43.89L119.044 43.428H118.45C118.215 43.428 117.805 43.2007 117.218 42.746C116.969 42.5553 116.756 42.3867 116.58 42.24C116.536 42.2107 116.492 42.1813 116.448 42.152C116.419 42.1227 116.389 42.0933 116.36 42.064C116.36 41.9467 116.345 41.8 116.316 41.624C116.287 41.448 116.243 41.228 116.184 40.964C116.14 40.7 116.096 40.4947 116.052 40.348C116.023 40.1867 116.001 40.0693 115.986 39.996C115.986 39.952 115.993 39.9007 116.008 39.842C116.023 39.7687 116.023 39.7027 116.008 39.644C116.008 39.5707 115.986 39.512 115.942 39.468C115.898 39.424 115.817 39.402 115.7 39.402L115.766 38.17C115.825 38.0087 115.854 37.8987 115.854 37.84C115.854 37.7813 115.847 37.73 115.832 37.686C115.817 37.642 115.81 37.5833 115.81 37.51C115.81 37.4367 115.847 37.312 115.92 37.136L116.03 36.322C116.162 36.366 116.265 36.3293 116.338 36.212C116.426 36.0947 116.477 35.9553 116.492 35.794C116.521 35.618 116.514 35.464 116.47 35.332C116.426 35.1853 116.338 35.112 116.206 35.112C116.147 34.9947 116.111 34.87 116.096 34.738C116.081 34.5913 116.089 34.518 116.118 34.518C116.118 34.43 116.111 34.3273 116.096 34.21C116.081 34.0927 116.074 33.8727 116.074 33.55L116.712 33.022C116.888 33.0367 117.108 33.0513 117.372 33.066C117.636 33.066 117.907 33.066 118.186 33.066C118.479 33.066 118.758 33.0733 119.022 33.088C119.286 33.088 119.499 33.1027 119.66 33.132L119.836 33.418C119.748 33.7113 119.704 33.924 119.704 34.056C119.689 34.144 119.689 34.2173 119.704 34.276L119.66 35.288C119.616 35.376 119.572 35.508 119.528 35.684C119.499 35.8453 119.469 36.0287 119.44 36.234C119.425 36.4247 119.411 36.6227 119.396 36.828C119.381 37.0333 119.374 37.2093 119.374 37.356C119.301 37.6053 119.227 37.8693 119.154 38.148C119.081 38.412 119.073 38.6613 119.132 38.896C119.161 38.9693 119.176 39.0647 119.176 39.182C119.191 39.2847 119.242 39.4827 119.33 39.776C119.301 39.864 119.279 39.974 119.264 40.106C119.249 40.238 119.242 40.3773 119.242 40.524C119.257 40.656 119.286 40.7953 119.33 40.942C119.389 41.074 119.469 41.184 119.572 41.272L120.408 41.932L121.728 42.042C121.875 42.2327 122.007 42.328 122.124 42.328C122.241 42.3133 122.337 42.1593 122.41 41.866L123.18 41.404L123.796 39.776L123.818 38.764V37.686C124.111 37.4807 124.273 37.2607 124.302 37.026C124.331 36.7913 124.177 36.5127 123.84 36.19L123.774 33.66L124.214 33.264L125.556 33.374L126.04 34.1ZM137.566 34.144V34.958L137.434 35.09L135.432 34.672L133.672 35.486L133.188 36.608C132.748 37.488 132.425 38.2873 132.22 39.006C132.015 39.71 132.037 40.3113 132.286 40.81L132.924 41.91L135.234 41.514L136.202 41.184H138.006L138.226 41.954L135.762 42.658L132.286 43.384L131.23 42.702H129.426L128.744 41.954C128.568 41.118 128.59 40.2747 128.81 39.424C129.03 38.5587 129.36 37.6787 129.8 36.784L132.264 35.002L132.88 33.946L133.584 33.682L134.068 33.286L137.412 33.704L137.566 34.144ZM140.027 35.486C139.969 35.3247 139.925 35.112 139.895 34.848C139.866 34.5693 139.837 34.3347 139.807 34.144L140.225 33.352C140.489 33.308 140.673 33.2933 140.775 33.308C140.893 33.3227 140.981 33.3447 141.039 33.374C141.127 33.3593 141.252 33.3447 141.413 33.33C141.589 33.3007 141.853 33.2567 142.205 33.198C142.235 32.9487 142.286 32.67 142.359 32.362C142.433 32.054 142.484 31.7093 142.513 31.328L142.205 31.02L142.183 30.69L142.425 30.118H145.065L146.055 30.162C146.158 30.2793 146.202 30.4187 146.187 30.58C146.173 30.7267 146.143 30.866 146.099 30.998C146.055 31.13 146.011 31.24 145.967 31.328C145.938 31.4013 145.945 31.4233 145.989 31.394V32.758C145.901 32.8313 145.835 32.9193 145.791 33.022C145.747 33.11 145.711 33.2127 145.681 33.33L145.725 33.374L147.001 33.33C147.045 33.3447 147.089 33.3593 147.133 33.374C147.177 33.3887 147.229 33.4033 147.287 33.418C147.463 33.462 147.691 33.484 147.969 33.484L148.167 33.704L147.925 34.76C147.837 34.76 147.72 34.7747 147.573 34.804C147.427 34.8187 147.273 34.8407 147.111 34.87C146.965 34.8847 146.825 34.8993 146.693 34.914C146.576 34.9287 146.495 34.936 146.451 34.936L145.527 35.2C145.469 35.3613 145.425 35.5007 145.395 35.618C145.381 35.7207 145.373 35.8233 145.373 35.926C145.373 36.014 145.373 36.1167 145.373 36.234C145.388 36.3367 145.395 36.4687 145.395 36.63L145.241 39.424C145.197 39.6733 145.183 39.9007 145.197 40.106C145.227 40.3113 145.263 40.4873 145.307 40.634C145.337 40.7073 145.366 40.7807 145.395 40.854C145.425 40.9273 145.454 41.0007 145.483 41.074L145.681 41.646L145.769 41.756L147.903 41.096L148.717 40.898L149.201 41.338L148.673 42.042L148.167 42.306L147.727 42.394L145.197 43.516C145.124 43.516 145.065 43.5087 145.021 43.494C144.948 43.494 144.86 43.494 144.757 43.494C144.669 43.4793 144.567 43.4647 144.449 43.45C143.921 43.406 143.525 43.4207 143.261 43.494C143.261 43.0833 143.1 42.8047 142.777 42.658C142.616 42.5553 142.469 42.4673 142.337 42.394C142.22 42.3207 142.11 42.262 142.007 42.218C142.007 41.9687 142.007 41.8 142.007 41.712C142.022 41.624 142.007 41.5067 141.963 41.36C141.934 41.2867 141.927 41.1253 141.941 40.876C141.956 40.612 141.971 40.282 141.985 39.886C142.015 39.4753 142 39.1453 141.941 38.896C141.883 38.632 141.795 38.5 141.677 38.5C141.692 38.3093 141.699 38.1187 141.699 37.928C141.714 37.7373 141.729 37.5687 141.743 37.422C141.758 37.3487 141.765 37.268 141.765 37.18C141.765 37.092 141.765 37.0113 141.765 36.938C141.795 36.8793 141.817 36.8353 141.831 36.806C141.846 36.762 141.861 36.7327 141.875 36.718C141.89 36.6887 141.956 36.652 142.073 36.608C142.205 36.5493 142.323 36.3953 142.425 36.146C142.763 35.9113 142.909 35.6987 142.865 35.508C142.821 35.3173 142.565 35.1853 142.095 35.112C141.993 35.1267 141.905 35.156 141.831 35.2C141.773 35.2293 141.743 35.31 141.743 35.442L140.423 35.728L140.027 35.486ZM161.403 34.1L160.985 37.18L161.051 38.434L160.941 39.754L160.611 41.03L159.335 42.922C158.778 43.3473 158.176 43.6333 157.531 43.78C156.886 43.9267 156.189 43.9633 155.441 43.89L154.407 43.428H153.813C153.578 43.428 153.168 43.2007 152.581 42.746C152.332 42.5553 152.119 42.3867 151.943 42.24C151.899 42.2107 151.855 42.1813 151.811 42.152C151.782 42.1227 151.752 42.0933 151.723 42.064C151.723 41.9467 151.708 41.8 151.679 41.624C151.65 41.448 151.606 41.228 151.547 40.964C151.503 40.7 151.459 40.4947 151.415 40.348C151.386 40.1867 151.364 40.0693 151.349 39.996C151.349 39.952 151.356 39.9007 151.371 39.842C151.386 39.7687 151.386 39.7027 151.371 39.644C151.371 39.5707 151.349 39.512 151.305 39.468C151.261 39.424 151.18 39.402 151.063 39.402L151.129 38.17C151.188 38.0087 151.217 37.8987 151.217 37.84C151.217 37.7813 151.21 37.73 151.195 37.686C151.18 37.642 151.173 37.5833 151.173 37.51C151.173 37.4367 151.21 37.312 151.283 37.136L151.393 36.322C151.525 36.366 151.628 36.3293 151.701 36.212C151.789 36.0947 151.84 35.9553 151.855 35.794C151.884 35.618 151.877 35.464 151.833 35.332C151.789 35.1853 151.701 35.112 151.569 35.112C151.51 34.9947 151.474 34.87 151.459 34.738C151.444 34.5913 151.452 34.518 151.481 34.518C151.481 34.43 151.474 34.3273 151.459 34.21C151.444 34.0927 151.437 33.8727 151.437 33.55L152.075 33.022C152.251 33.0367 152.471 33.0513 152.735 33.066C152.999 33.066 153.27 33.066 153.549 33.066C153.842 33.066 154.121 33.0733 154.385 33.088C154.649 33.088 154.862 33.1027 155.023 33.132L155.199 33.418C155.111 33.7113 155.067 33.924 155.067 34.056C155.052 34.144 155.052 34.2173 155.067 34.276L155.023 35.288C154.979 35.376 154.935 35.508 154.891 35.684C154.862 35.8453 154.832 36.0287 154.803 36.234C154.788 36.4247 154.774 36.6227 154.759 36.828C154.744 37.0333 154.737 37.2093 154.737 37.356C154.664 37.6053 154.59 37.8693 154.517 38.148C154.444 38.412 154.436 38.6613 154.495 38.896C154.524 38.9693 154.539 39.0647 154.539 39.182C154.554 39.2847 154.605 39.4827 154.693 39.776C154.664 39.864 154.642 39.974 154.627 40.106C154.612 40.238 154.605 40.3773 154.605 40.524C154.62 40.656 154.649 40.7953 154.693 40.942C154.752 41.074 154.832 41.184 154.935 41.272L155.771 41.932L157.091 42.042C157.238 42.2327 157.37 42.328 157.487 42.328C157.604 42.3133 157.7 42.1593 157.773 41.866L158.543 41.404L159.159 39.776L159.181 38.764V37.686C159.474 37.4807 159.636 37.2607 159.665 37.026C159.694 36.7913 159.54 36.5127 159.203 36.19L159.137 33.66L159.577 33.264L160.919 33.374L161.403 34.1ZM172.071 33.66V34.672H171.499L170.663 35.332C169.945 35.4347 169.358 35.5813 168.903 35.772C168.449 35.948 168.236 36.1973 168.265 36.52C168.236 36.5933 168.221 36.6813 168.221 36.784C168.221 36.872 168.273 36.916 168.375 36.916L167.935 39.116L167.737 39.358V41.8L167.605 43.032L167.165 43.472L164.657 43.296L164.107 42.548L164.261 42.152L164.173 40.942L164.437 38.72L164.657 37.092C164.657 37.048 164.665 37.0113 164.679 36.982C164.679 36.9527 164.679 36.916 164.679 36.872C164.694 36.828 164.701 36.7913 164.701 36.762C164.775 36.7033 164.819 36.5713 164.833 36.366C164.863 36.1607 164.87 36.0287 164.855 35.97C164.855 35.8673 164.848 35.772 164.833 35.684C164.833 35.596 164.804 35.4053 164.745 35.112C164.731 35.024 164.679 34.9213 164.591 34.804C164.518 34.672 164.437 34.5547 164.349 34.452L164.635 33.77H165.053L167.319 33.352L167.869 33.616C167.825 33.8653 167.818 34.078 167.847 34.254C167.891 34.4153 167.95 34.54 168.023 34.628C168.111 34.716 168.207 34.7747 168.309 34.804C168.412 34.8187 168.5 34.804 168.573 34.76L168.969 34.54C169.043 34.5107 169.065 34.43 169.035 34.298C169.021 34.166 169.028 33.9973 169.057 33.792L171.785 33.308L172.071 33.66ZM182.529 38.28C182.206 38.236 181.92 38.2947 181.671 38.456C181.583 38.5 181.495 38.544 181.407 38.588C181.319 38.6173 181.231 38.6467 181.143 38.676C181.099 38.6907 181.055 38.7053 181.011 38.72C180.967 38.7347 180.93 38.7493 180.901 38.764L177.843 39.688C176.992 39.4973 176.691 39.6367 176.941 40.106C176.985 40.2087 177.043 40.3627 177.117 40.568C177.19 40.7733 177.249 40.92 177.293 41.008C177.483 41.0813 177.681 41.1987 177.887 41.36C178.092 41.5067 178.283 41.5947 178.459 41.624L178.855 41.58C178.957 41.58 179.097 41.5727 179.273 41.558C179.463 41.5433 179.647 41.5213 179.823 41.492C180.013 41.448 180.182 41.3967 180.329 41.338C180.49 41.2793 180.6 41.206 180.659 41.118C180.703 41.0447 180.769 40.9933 180.857 40.964C180.945 40.92 181.033 40.8833 181.121 40.854C181.179 40.8393 181.231 40.832 181.275 40.832C181.333 40.8173 181.399 40.8027 181.473 40.788L181.715 41.646L181.451 42.152C181.436 42.1813 181.385 42.218 181.297 42.262C181.223 42.2913 181.135 42.3353 181.033 42.394C180.93 42.4527 180.827 42.5113 180.725 42.57C180.637 42.614 180.571 42.658 180.527 42.702C180.497 42.7313 180.417 42.746 180.285 42.746C180.167 42.746 180.028 42.746 179.867 42.746C179.72 42.746 179.566 42.7533 179.405 42.768C179.243 42.7827 179.119 42.812 179.031 42.856C178.825 42.9587 178.664 43.0247 178.547 43.054C178.444 43.0833 178.356 43.1053 178.283 43.12C178.209 43.1493 178.158 43.142 178.129 43.098C178.099 43.0833 178.048 43.076 177.975 43.076C177.931 43.076 177.872 43.076 177.799 43.076C177.725 43.076 177.652 43.0687 177.579 43.054C177.388 43.0393 177.234 43.032 177.117 43.032C176.999 43.0173 176.926 43.01 176.897 43.01L174.785 41.976C174.741 41.536 174.535 41.316 174.169 41.316C174.095 41.316 174.007 41.2573 173.905 41.14C173.802 41.008 173.714 40.8687 173.641 40.722C173.582 40.6487 173.531 40.568 173.487 40.48C173.443 40.3773 173.399 40.2673 173.355 40.15L173.157 37.642L173.355 36.168C173.369 36.1093 173.413 36.036 173.487 35.948C173.575 35.8013 173.685 35.5813 173.817 35.288C173.875 35.156 173.993 35.0313 174.169 34.914C174.345 34.7967 174.528 34.694 174.719 34.606C174.924 34.5033 175.115 34.4153 175.291 34.342C175.481 34.254 175.621 34.1807 175.709 34.122C175.885 34.1513 176.141 33.9607 176.479 33.55C176.567 33.4473 176.677 33.3667 176.809 33.308C176.941 33.2347 177.073 33.176 177.205 33.132C177.278 33.1027 177.359 33.0807 177.447 33.066C177.535 33.0513 177.615 33.0367 177.689 33.022L180.263 33.352C180.409 33.3813 180.563 33.4253 180.725 33.484C180.842 33.5427 180.959 33.616 181.077 33.704C181.194 33.792 181.289 33.8947 181.363 34.012C181.465 34.2613 181.612 34.4667 181.803 34.628C181.993 34.7747 182.147 34.8773 182.265 34.936L183.079 36.388L182.903 37.818L182.529 38.28ZM179.273 37.532L179.449 37.4C179.493 37.3707 179.537 37.3413 179.581 37.312C179.625 37.268 179.661 37.2387 179.691 37.224C179.793 37.1947 179.911 37.136 180.043 37.048C180.175 36.96 180.226 36.85 180.197 36.718C180.197 36.4687 180.065 36.19 179.801 35.882C179.537 35.574 179.192 35.354 178.767 35.222C178.561 35.1487 178.363 35.112 178.173 35.112C177.982 35.112 177.799 35.1267 177.623 35.156C177.461 35.1707 177.307 35.1927 177.161 35.222C177.029 35.2513 176.919 35.266 176.831 35.266C176.493 35.1927 176.303 35.3467 176.259 35.728C176.039 36.0653 175.929 36.4393 175.929 36.85C175.943 37.246 175.987 37.6273 176.061 37.994C176.061 38.1993 176.097 38.368 176.171 38.5C176.259 38.632 176.361 38.7127 176.479 38.742C176.596 38.7713 176.713 38.7493 176.831 38.676C176.963 38.588 177.073 38.434 177.161 38.214L179.273 37.532ZM205.983 42.724L204.751 43.098L203.145 43.296L202.991 42.922L203.321 41.646L203.717 40.48L203.827 36.322L203.299 35.332H202.661L201.649 36.08H201.407C201.246 36.08 201.143 36.1753 201.099 36.366C201.07 36.542 201.07 36.7473 201.099 36.982C200.967 37.026 200.872 37.246 200.813 37.642L200.725 38.258L200.703 39.6L200.307 41.36L200.461 42.24L200.263 43.032L200.065 43.23L197.623 43.406L197.117 42.944L197.271 42.086L197.579 39.82C197.638 39.556 197.689 39.2553 197.733 38.918C197.792 38.5807 197.836 38.2433 197.865 37.906C197.894 37.554 197.909 37.224 197.909 36.916C197.924 36.5933 197.924 36.3293 197.909 36.124C197.88 35.9627 197.88 35.8307 197.909 35.728C197.938 35.6107 197.946 35.5227 197.931 35.464L197.513 35.068L196.149 35.288L195.709 34.914C195.357 34.7087 195.174 34.8333 195.159 35.288C195.071 35.42 194.99 35.53 194.917 35.618C194.858 35.6913 194.822 35.8087 194.807 35.97C194.734 35.9993 194.675 36.036 194.631 36.08C194.572 36.1387 194.514 36.2267 194.455 36.344C194.396 36.4613 194.352 36.63 194.323 36.85C194.264 37.2753 194.235 37.6347 194.235 37.928C194.235 38.2213 194.272 38.4267 194.345 38.544V38.94L193.971 39.82L193.861 41.382L193.663 42.9L193.487 43.098L190.825 43.318L190.385 42.922L190.517 42.086L190.649 40.942L190.737 39.27C190.737 38.9913 190.774 38.7273 190.847 38.478C190.92 38.2287 190.986 37.95 191.045 37.642L191.265 35.904C191.368 35.8013 191.478 35.618 191.595 35.354C191.727 35.09 191.793 34.8333 191.793 34.584C191.793 34.5107 191.778 34.4593 191.749 34.43C191.734 34.386 191.712 34.3347 191.683 34.276L192.013 33.836C192.042 33.836 192.108 33.8433 192.211 33.858C192.314 33.858 192.431 33.858 192.563 33.858C192.71 33.8433 192.856 33.836 193.003 33.836C193.15 33.8213 193.289 33.7993 193.421 33.77C193.949 33.6967 194.279 33.5867 194.411 33.44L195.247 33.396L195.159 34.232C195.291 34.364 195.43 34.4447 195.577 34.474C195.738 34.4887 195.9 34.4667 196.061 34.408C196.222 34.3347 196.376 34.232 196.523 34.1C196.67 33.9533 196.794 33.7847 196.897 33.594L198.151 33.616C198.312 33.6013 198.466 33.594 198.613 33.594C198.774 33.5793 198.928 33.572 199.075 33.572C199.31 33.572 199.53 33.594 199.735 33.638C199.94 33.6673 200.058 33.7187 200.087 33.792C200.146 34.056 200.27 34.1587 200.461 34.1C200.49 34.0853 200.542 34.1367 200.615 34.254C200.703 34.3567 200.835 34.4227 201.011 34.452C201.099 34.4813 201.158 34.5327 201.187 34.606C201.231 34.6647 201.26 34.7307 201.275 34.804C201.29 34.8773 201.304 34.9433 201.319 35.002C201.334 35.046 201.363 35.068 201.407 35.068L202.683 34.056L204.729 33.726L206.599 35.222L206.643 35.53C206.643 35.618 206.636 35.706 206.621 35.794C206.621 35.8673 206.599 35.926 206.555 35.97V37.95L206.577 40.062L206.181 42.504L205.983 42.724ZM218.085 38.28C217.763 38.236 217.477 38.2947 217.227 38.456C217.139 38.5 217.051 38.544 216.963 38.588C216.875 38.6173 216.787 38.6467 216.699 38.676C216.655 38.6907 216.611 38.7053 216.567 38.72C216.523 38.7347 216.487 38.7493 216.457 38.764L213.399 39.688C212.549 39.4973 212.248 39.6367 212.497 40.106C212.541 40.2087 212.6 40.3627 212.673 40.568C212.747 40.7733 212.805 40.92 212.849 41.008C213.04 41.0813 213.238 41.1987 213.443 41.36C213.649 41.5067 213.839 41.5947 214.015 41.624L214.411 41.58C214.514 41.58 214.653 41.5727 214.829 41.558C215.02 41.5433 215.203 41.5213 215.379 41.492C215.57 41.448 215.739 41.3967 215.885 41.338C216.047 41.2793 216.157 41.206 216.215 41.118C216.259 41.0447 216.325 40.9933 216.413 40.964C216.501 40.92 216.589 40.8833 216.677 40.854C216.736 40.8393 216.787 40.832 216.831 40.832C216.89 40.8173 216.956 40.8027 217.029 40.788L217.271 41.646L217.007 42.152C216.993 42.1813 216.941 42.218 216.853 42.262C216.78 42.2913 216.692 42.3353 216.589 42.394C216.487 42.4527 216.384 42.5113 216.281 42.57C216.193 42.614 216.127 42.658 216.083 42.702C216.054 42.7313 215.973 42.746 215.841 42.746C215.724 42.746 215.585 42.746 215.423 42.746C215.277 42.746 215.123 42.7533 214.961 42.768C214.8 42.7827 214.675 42.812 214.587 42.856C214.382 42.9587 214.221 43.0247 214.103 43.054C214.001 43.0833 213.913 43.1053 213.839 43.12C213.766 43.1493 213.715 43.142 213.685 43.098C213.656 43.0833 213.605 43.076 213.531 43.076C213.487 43.076 213.429 43.076 213.355 43.076C213.282 43.076 213.209 43.0687 213.135 43.054C212.945 43.0393 212.791 43.032 212.673 43.032C212.556 43.0173 212.483 43.01 212.453 43.01L210.341 41.976C210.297 41.536 210.092 41.316 209.725 41.316C209.652 41.316 209.564 41.2573 209.461 41.14C209.359 41.008 209.271 40.8687 209.197 40.722C209.139 40.6487 209.087 40.568 209.043 40.48C208.999 40.3773 208.955 40.2673 208.911 40.15L208.713 37.642L208.911 36.168C208.926 36.1093 208.97 36.036 209.043 35.948C209.131 35.8013 209.241 35.5813 209.373 35.288C209.432 35.156 209.549 35.0313 209.725 34.914C209.901 34.7967 210.085 34.694 210.275 34.606C210.481 34.5033 210.671 34.4153 210.847 34.342C211.038 34.254 211.177 34.1807 211.265 34.122C211.441 34.1513 211.698 33.9607 212.035 33.55C212.123 33.4473 212.233 33.3667 212.365 33.308C212.497 33.2347 212.629 33.176 212.761 33.132C212.835 33.1027 212.915 33.0807 213.003 33.066C213.091 33.0513 213.172 33.0367 213.245 33.022L215.819 33.352C215.966 33.3813 216.12 33.4253 216.281 33.484C216.399 33.5427 216.516 33.616 216.633 33.704C216.751 33.792 216.846 33.8947 216.919 34.012C217.022 34.2613 217.169 34.4667 217.359 34.628C217.55 34.7747 217.704 34.8773 217.821 34.936L218.635 36.388L218.459 37.818L218.085 38.28ZM214.829 37.532L215.005 37.4C215.049 37.3707 215.093 37.3413 215.137 37.312C215.181 37.268 215.218 37.2387 215.247 37.224C215.35 37.1947 215.467 37.136 215.599 37.048C215.731 36.96 215.783 36.85 215.753 36.718C215.753 36.4687 215.621 36.19 215.357 35.882C215.093 35.574 214.749 35.354 214.323 35.222C214.118 35.1487 213.92 35.112 213.729 35.112C213.539 35.112 213.355 35.1267 213.179 35.156C213.018 35.1707 212.864 35.1927 212.717 35.222C212.585 35.2513 212.475 35.266 212.387 35.266C212.05 35.1927 211.859 35.3467 211.815 35.728C211.595 36.0653 211.485 36.4393 211.485 36.85C211.5 37.246 211.544 37.6273 211.617 37.994C211.617 38.1993 211.654 38.368 211.727 38.5C211.815 38.632 211.918 38.7127 212.035 38.742C212.153 38.7713 212.27 38.7493 212.387 38.676C212.519 38.588 212.629 38.434 212.717 38.214L214.829 37.532ZM229.236 38.28C228.913 38.236 228.627 38.2947 228.378 38.456C228.29 38.5 228.202 38.544 228.114 38.588C228.026 38.6173 227.938 38.6467 227.85 38.676C227.806 38.6907 227.762 38.7053 227.718 38.72C227.674 38.7347 227.637 38.7493 227.608 38.764L224.55 39.688C223.699 39.4973 223.398 39.6367 223.648 40.106C223.692 40.2087 223.75 40.3627 223.824 40.568C223.897 40.7733 223.956 40.92 224 41.008C224.19 41.0813 224.388 41.1987 224.594 41.36C224.799 41.5067 224.99 41.5947 225.166 41.624L225.562 41.58C225.664 41.58 225.804 41.5727 225.98 41.558C226.17 41.5433 226.354 41.5213 226.53 41.492C226.72 41.448 226.889 41.3967 227.036 41.338C227.197 41.2793 227.307 41.206 227.366 41.118C227.41 41.0447 227.476 40.9933 227.564 40.964C227.652 40.92 227.74 40.8833 227.828 40.854C227.886 40.8393 227.938 40.832 227.982 40.832C228.04 40.8173 228.106 40.8027 228.18 40.788L228.422 41.646L228.158 42.152C228.143 42.1813 228.092 42.218 228.004 42.262C227.93 42.2913 227.842 42.3353 227.74 42.394C227.637 42.4527 227.534 42.5113 227.432 42.57C227.344 42.614 227.278 42.658 227.234 42.702C227.204 42.7313 227.124 42.746 226.992 42.746C226.874 42.746 226.735 42.746 226.574 42.746C226.427 42.746 226.273 42.7533 226.112 42.768C225.95 42.7827 225.826 42.812 225.738 42.856C225.532 42.9587 225.371 43.0247 225.254 43.054C225.151 43.0833 225.063 43.1053 224.99 43.12C224.916 43.1493 224.865 43.142 224.836 43.098C224.806 43.0833 224.755 43.076 224.682 43.076C224.638 43.076 224.579 43.076 224.506 43.076C224.432 43.076 224.359 43.0687 224.286 43.054C224.095 43.0393 223.941 43.032 223.824 43.032C223.706 43.0173 223.633 43.01 223.604 43.01L221.492 41.976C221.448 41.536 221.242 41.316 220.876 41.316C220.802 41.316 220.714 41.2573 220.612 41.14C220.509 41.008 220.421 40.8687 220.348 40.722C220.289 40.6487 220.238 40.568 220.194 40.48C220.15 40.3773 220.106 40.2673 220.062 40.15L219.864 37.642L220.062 36.168C220.076 36.1093 220.12 36.036 220.194 35.948C220.282 35.8013 220.392 35.5813 220.524 35.288C220.582 35.156 220.7 35.0313 220.876 34.914C221.052 34.7967 221.235 34.694 221.426 34.606C221.631 34.5033 221.822 34.4153 221.998 34.342C222.188 34.254 222.328 34.1807 222.416 34.122C222.592 34.1513 222.848 33.9607 223.186 33.55C223.274 33.4473 223.384 33.3667 223.516 33.308C223.648 33.2347 223.78 33.176 223.912 33.132C223.985 33.1027 224.066 33.0807 224.154 33.066C224.242 33.0513 224.322 33.0367 224.396 33.022L226.97 33.352C227.116 33.3813 227.27 33.4253 227.432 33.484C227.549 33.5427 227.666 33.616 227.784 33.704C227.901 33.792 227.996 33.8947 228.07 34.012C228.172 34.2613 228.319 34.4667 228.51 34.628C228.7 34.7747 228.854 34.8773 228.972 34.936L229.786 36.388L229.61 37.818L229.236 38.28ZM225.98 37.532L226.156 37.4C226.2 37.3707 226.244 37.3413 226.288 37.312C226.332 37.268 226.368 37.2387 226.398 37.224C226.5 37.1947 226.618 37.136 226.75 37.048C226.882 36.96 226.933 36.85 226.904 36.718C226.904 36.4687 226.772 36.19 226.508 35.882C226.244 35.574 225.899 35.354 225.474 35.222C225.268 35.1487 225.07 35.112 224.88 35.112C224.689 35.112 224.506 35.1267 224.33 35.156C224.168 35.1707 224.014 35.1927 223.868 35.222C223.736 35.2513 223.626 35.266 223.538 35.266C223.2 35.1927 223.01 35.3467 222.966 35.728C222.746 36.0653 222.636 36.4393 222.636 36.85C222.65 37.246 222.694 37.6273 222.768 37.994C222.768 38.1993 222.804 38.368 222.878 38.5C222.966 38.632 223.068 38.7127 223.186 38.742C223.303 38.7713 223.42 38.7493 223.538 38.676C223.67 38.588 223.78 38.434 223.868 38.214L225.98 37.532ZM230.992 35.486C230.933 35.3247 230.889 35.112 230.86 34.848C230.831 34.5693 230.801 34.3347 230.772 34.144L231.19 33.352C231.454 33.308 231.637 33.2933 231.74 33.308C231.857 33.3227 231.945 33.3447 232.004 33.374C232.092 33.3593 232.217 33.3447 232.378 33.33C232.554 33.3007 232.818 33.2567 233.17 33.198C233.199 32.9487 233.251 32.67 233.324 32.362C233.397 32.054 233.449 31.7093 233.478 31.328L233.17 31.02L233.148 30.69L233.39 30.118H236.03L237.02 30.162C237.123 30.2793 237.167 30.4187 237.152 30.58C237.137 30.7267 237.108 30.866 237.064 30.998C237.02 31.13 236.976 31.24 236.932 31.328C236.903 31.4013 236.91 31.4233 236.954 31.394V32.758C236.866 32.8313 236.8 32.9193 236.756 33.022C236.712 33.11 236.675 33.2127 236.646 33.33L236.69 33.374L237.966 33.33C238.01 33.3447 238.054 33.3593 238.098 33.374C238.142 33.3887 238.193 33.4033 238.252 33.418C238.428 33.462 238.655 33.484 238.934 33.484L239.132 33.704L238.89 34.76C238.802 34.76 238.685 34.7747 238.538 34.804C238.391 34.8187 238.237 34.8407 238.076 34.87C237.929 34.8847 237.79 34.8993 237.658 34.914C237.541 34.9287 237.46 34.936 237.416 34.936L236.492 35.2C236.433 35.3613 236.389 35.5007 236.36 35.618C236.345 35.7207 236.338 35.8233 236.338 35.926C236.338 36.014 236.338 36.1167 236.338 36.234C236.353 36.3367 236.36 36.4687 236.36 36.63L236.206 39.424C236.162 39.6733 236.147 39.9007 236.162 40.106C236.191 40.3113 236.228 40.4873 236.272 40.634C236.301 40.7073 236.331 40.7807 236.36 40.854C236.389 40.9273 236.419 41.0007 236.448 41.074L236.646 41.646L236.734 41.756L238.868 41.096L239.682 40.898L240.166 41.338L239.638 42.042L239.132 42.306L238.692 42.394L236.162 43.516C236.089 43.516 236.03 43.5087 235.986 43.494C235.913 43.494 235.825 43.494 235.722 43.494C235.634 43.4793 235.531 43.4647 235.414 43.45C234.886 43.406 234.49 43.4207 234.226 43.494C234.226 43.0833 234.065 42.8047 233.742 42.658C233.581 42.5553 233.434 42.4673 233.302 42.394C233.185 42.3207 233.075 42.262 232.972 42.218C232.972 41.9687 232.972 41.8 232.972 41.712C232.987 41.624 232.972 41.5067 232.928 41.36C232.899 41.2867 232.891 41.1253 232.906 40.876C232.921 40.612 232.935 40.282 232.95 39.886C232.979 39.4753 232.965 39.1453 232.906 38.896C232.847 38.632 232.759 38.5 232.642 38.5C232.657 38.3093 232.664 38.1187 232.664 37.928C232.679 37.7373 232.693 37.5687 232.708 37.422C232.723 37.3487 232.73 37.268 232.73 37.18C232.73 37.092 232.73 37.0113 232.73 36.938C232.759 36.8793 232.781 36.8353 232.796 36.806C232.811 36.762 232.825 36.7327 232.84 36.718C232.855 36.6887 232.921 36.652 233.038 36.608C233.17 36.5493 233.287 36.3953 233.39 36.146C233.727 35.9113 233.874 35.6987 233.83 35.508C233.786 35.3173 233.529 35.1853 233.06 35.112C232.957 35.1267 232.869 35.156 232.796 35.2C232.737 35.2293 232.708 35.31 232.708 35.442L231.388 35.728L230.992 35.486ZM241.786 34.958L242.732 33.44C242.791 33.44 242.849 33.44 242.908 33.44C242.967 33.4253 243.033 33.4107 243.106 33.396C243.223 33.3813 243.377 33.3593 243.568 33.33C243.759 33.3007 243.979 33.2713 244.228 33.242C245.225 33.1247 245.592 32.8827 245.328 32.516L248.474 32.054H249.288L249.442 32.23L249.53 32.956L249.156 33.242L248.056 33.264L246.626 33.968L245.042 34.474L244.778 35.068L245.284 36.3L245.9 36.388L246.186 37.026L246.714 36.982L247.022 37.356C247.154 37.312 247.286 37.2827 247.418 37.268C247.55 37.2387 247.667 37.2387 247.77 37.268C247.843 37.2827 247.924 37.2973 248.012 37.312C248.1 37.312 248.203 37.3267 248.32 37.356C248.467 37.4 248.569 37.4513 248.628 37.51C248.687 37.554 248.738 37.598 248.782 37.642C248.826 37.6713 248.877 37.7007 248.936 37.73C248.995 37.7593 249.097 37.774 249.244 37.774C249.288 37.862 249.369 37.95 249.486 38.038C249.618 38.126 249.757 38.214 249.904 38.302C250.065 38.39 250.219 38.478 250.366 38.566C250.527 38.654 250.645 38.742 250.718 38.83C250.747 38.8593 250.762 38.8813 250.762 38.896C250.777 38.9107 250.799 38.9327 250.828 38.962L250.96 40.018L250.476 41.338L250.344 42.262L249.266 42.812L247.484 43.516L246.406 43.362C246.025 43.3033 245.687 43.3033 245.394 43.362C245.101 43.4207 244.829 43.45 244.58 43.45H242.16L241.896 42.79L242.072 42.152L245.262 41.822L246.318 41.69L247.638 40.282L247.44 39.644L246.472 39.468L244.778 39.006L244.492 39.16L243.568 38.742L242.974 38.346L242.292 36.85L241.786 35.86V34.958ZM263.559 40.106L263.647 41.668L263.559 42.482V42.9L263.141 43.494L262.415 43.67L260.523 44.022C260.361 44.0513 260.229 44.0293 260.127 43.956C260.039 43.868 259.995 43.6553 259.995 43.318V43.274L260.347 41.602L260.413 40.106V39.27L260.677 37.378C260.662 37.3047 260.647 37.1653 260.633 36.96C260.618 36.7547 260.596 36.498 260.567 36.19C260.552 36.0287 260.545 35.882 260.545 35.75C260.545 35.618 260.537 35.5007 260.523 35.398V34.936C260.523 34.9507 260.574 34.9067 260.677 34.804C260.779 34.6867 260.867 34.5473 260.941 34.386C261.014 34.21 261.043 34.0193 261.029 33.814C261.014 33.6087 260.889 33.418 260.655 33.242L261.029 29.436C261.131 29.3773 261.139 29.2013 261.051 28.908L261.491 28.468L261.777 28.424C261.835 28.4387 261.931 28.4533 262.063 28.468C262.195 28.468 262.334 28.4753 262.481 28.49C262.627 28.49 262.767 28.4973 262.899 28.512C263.045 28.512 263.155 28.5193 263.229 28.534C263.361 28.5633 263.529 28.5853 263.735 28.6C263.94 28.6 264.087 28.622 264.175 28.666L264.615 28.908V29.326C264.659 29.414 264.651 29.5387 264.593 29.7C264.549 29.8467 264.534 30.0227 264.549 30.228C264.549 30.3307 264.541 30.448 264.527 30.58C264.512 30.712 264.497 30.8367 264.483 30.954C264.483 31.0713 264.475 31.174 264.461 31.262C264.446 31.35 264.439 31.4013 264.439 31.416C264.439 31.4453 264.431 31.482 264.417 31.526L264.395 31.702C264.395 31.7607 264.38 31.812 264.351 31.856C264.336 31.9 264.321 31.9147 264.307 31.9C264.292 31.9 264.255 31.944 264.197 32.032C264.153 32.12 264.101 32.23 264.043 32.362C263.999 32.4793 263.962 32.604 263.933 32.736C263.903 32.868 263.896 32.9707 263.911 33.044C263.925 33.1173 263.94 33.2347 263.955 33.396C263.969 33.5427 263.984 33.748 263.999 34.012C263.999 34.144 263.999 34.2613 263.999 34.364C264.013 34.4667 264.021 34.5547 264.021 34.628C264.021 34.716 264.028 34.782 264.043 34.826L263.889 36.124L263.933 36.762C263.727 37.1727 263.632 37.4587 263.647 37.62C263.676 37.7813 263.764 37.9133 263.911 38.016L263.559 40.106ZM269.156 29.788C269.185 29.6707 269.2 29.5607 269.2 29.458C269.215 29.3407 269.229 29.2233 269.244 29.106C269.244 29.0033 269.244 28.9153 269.244 28.842C269.259 28.7687 269.266 28.7027 269.266 28.644L269.376 28.402C269.42 28.3873 269.479 28.38 269.552 28.38C269.625 28.38 269.713 28.3727 269.816 28.358C270.124 28.3433 270.322 28.3067 270.41 28.248C270.41 28.2333 270.447 28.204 270.52 28.16C270.564 28.116 270.601 28.0867 270.63 28.072C270.645 28.072 270.696 28.0793 270.784 28.094C270.872 28.1087 270.989 28.138 271.136 28.182C271.385 28.2407 271.561 28.27 271.664 28.27C271.796 28.27 271.869 28.2627 271.884 28.248C271.899 28.2333 271.943 28.2333 272.016 28.248L272.214 28.622L272.412 29.744L271.95 30.514C271.935 30.5287 271.921 30.5433 271.906 30.558C271.906 30.5727 271.891 30.5873 271.862 30.602C271.789 30.646 271.701 30.712 271.598 30.8L271.532 30.866L270.872 30.932C270.784 30.9027 270.681 30.8733 270.564 30.844C270.447 30.8 270.307 30.7487 270.146 30.69C269.985 30.6313 269.845 30.58 269.728 30.536C269.611 30.4773 269.508 30.4333 269.42 30.404L269.31 30.294L269.156 29.788ZM271.884 33.572L271.796 34.364L271.884 34.694L271.752 35.046L271.818 35.552L271.708 35.97L271.774 36.102L271.686 37.092L271.598 39.182C271.598 39.2847 271.583 39.4167 271.554 39.578C271.525 39.7247 271.503 39.886 271.488 40.062C271.473 40.2233 271.473 40.392 271.488 40.568C271.503 40.7293 271.547 40.8687 271.62 40.986C271.605 41.206 271.583 41.4627 271.554 41.756C271.525 42.0493 271.473 42.3867 271.4 42.768C271.283 42.9293 271.158 43.076 271.026 43.208C270.909 43.3253 270.681 43.3913 270.344 43.406C270.153 43.4207 269.963 43.4353 269.772 43.45C269.596 43.4647 269.427 43.4867 269.266 43.516C269.178 43.5307 269.09 43.5453 269.002 43.56C268.914 43.5747 268.819 43.5967 268.716 43.626L268.166 42.922C268.181 42.8487 268.203 42.6507 268.232 42.328C268.276 41.9907 268.313 41.5947 268.342 41.14C268.371 40.6853 268.386 40.2013 268.386 39.688C268.401 39.1747 268.386 38.698 268.342 38.258L268.474 37.84L268.672 36.872L268.738 36.102L268.87 35.838L268.892 35.64L269.024 35.046L269.134 33.836L271.114 33.066L271.884 33.572ZM283.974 34.892C283.842 34.892 283.659 34.892 283.424 34.892C283.19 34.892 282.933 34.892 282.654 34.892C282.39 34.8773 282.126 34.87 281.862 34.87C281.598 34.87 281.371 34.87 281.18 34.87L281.268 35.772C281.268 35.816 281.246 35.8747 281.202 35.948C281.158 36.0213 281.107 36.102 281.048 36.19C280.99 36.278 280.931 36.366 280.872 36.454C280.814 36.542 280.777 36.608 280.762 36.652C280.733 36.7107 280.74 36.8427 280.784 37.048C280.843 37.2533 280.836 37.4367 280.762 37.598C280.792 37.6713 280.799 37.7667 280.784 37.884C280.784 38.0013 280.77 38.1187 280.74 38.236C280.726 38.3533 280.704 38.4633 280.674 38.566C280.66 38.6687 280.652 38.742 280.652 38.786C280.652 38.83 280.652 38.8667 280.652 38.896C280.667 38.9107 280.674 38.9327 280.674 38.962C280.689 38.9913 280.704 39.0427 280.718 39.116C280.748 39.1747 280.777 39.2773 280.806 39.424C280.821 39.4827 280.821 39.578 280.806 39.71C280.806 39.842 280.792 40.084 280.762 40.436C280.748 40.5827 280.733 40.678 280.718 40.722C280.704 40.7513 280.689 40.7807 280.674 40.81C280.66 40.8393 280.645 40.8907 280.63 40.964C280.63 41.0227 280.63 41.1547 280.63 41.36L280.344 42.394L280.41 42.636L280.036 43.956C279.831 43.9853 279.633 44.0073 279.442 44.022C279.252 44.0513 279.061 44.0807 278.87 44.11C278.562 44.154 278.262 44.1907 277.968 44.22C277.69 44.2493 277.492 44.264 277.374 44.264C277.257 44.264 277.206 44.132 277.22 43.868C277.235 43.604 277.279 43.3107 277.352 42.988C277.426 42.5773 277.536 42.152 277.682 41.712C277.668 41.6533 277.66 41.6167 277.66 41.602C277.675 41.5727 277.682 41.536 277.682 41.492C277.697 41.448 277.712 41.3747 277.726 41.272C277.756 41.1693 277.778 41.0007 277.792 40.766C277.836 40.282 277.866 39.93 277.88 39.71C277.91 39.4753 277.924 39.2993 277.924 39.182C277.924 39.138 277.917 39.0647 277.902 38.962C277.902 38.8593 277.888 38.7787 277.858 38.72L277.946 36.828C278.093 36.74 278.144 36.6447 278.1 36.542C278.056 36.4393 278.056 36.3587 278.1 36.3C278.144 36.1533 278.181 35.9993 278.21 35.838C278.254 35.6767 278.306 35.376 278.364 34.936L277.902 34.848C277.814 34.8187 277.726 34.8113 277.638 34.826C277.448 34.8407 277.147 34.9653 276.736 35.2L275.988 34.65C275.856 34.5327 275.82 34.386 275.878 34.21C275.952 34.0193 276.069 33.8433 276.23 33.682L277.814 33.462L278.43 33.418C278.533 33.5353 278.621 33.6013 278.694 33.616C278.768 33.616 278.826 33.594 278.87 33.55C278.929 33.506 278.973 33.44 279.002 33.352C279.032 33.264 279.054 33.1833 279.068 33.11C279.068 33.0807 279.068 33.0587 279.068 33.044C279.083 33.0147 279.09 32.9927 279.09 32.978V32.934C279.09 32.9193 279.083 32.8533 279.068 32.736C279.054 32.6187 278.988 32.5233 278.87 32.45C278.826 32.4207 278.753 32.362 278.65 32.274C278.548 32.186 278.496 32.1347 278.496 32.12C278.54 32.0027 278.562 31.8707 278.562 31.724C278.577 31.5773 278.584 31.4233 278.584 31.262L278.892 30.668C278.922 30.624 278.966 30.558 279.024 30.47C279.083 30.382 279.171 30.2793 279.288 30.162L279.64 29.832L281.004 29.062L283.468 29.128L284.612 30.008L284.59 30.36L284.062 30.844L283.798 30.822L283.314 30.228C283.124 30.096 282.933 30.03 282.742 30.03C282.552 30.0153 282.368 30.052 282.192 30.14C282.031 30.228 281.877 30.3527 281.73 30.514C281.584 30.6753 281.452 30.8587 281.334 31.064V31.152C281.334 31.284 281.342 31.372 281.356 31.416C281.371 31.636 281.393 31.7607 281.422 31.79C281.422 31.966 281.378 32.164 281.29 32.384C281.217 32.604 281.188 32.934 281.202 33.374H282.984C283.19 33.462 283.615 33.4913 284.26 33.462C284.378 33.462 284.473 33.462 284.546 33.462C284.634 33.4473 284.715 33.44 284.788 33.44L284.964 33.88L284.634 34.54L283.974 34.892ZM295.107 38.28C294.784 38.236 294.498 38.2947 294.249 38.456C294.161 38.5 294.073 38.544 293.985 38.588C293.897 38.6173 293.809 38.6467 293.721 38.676C293.677 38.6907 293.633 38.7053 293.589 38.72C293.545 38.7347 293.508 38.7493 293.479 38.764L290.421 39.688C289.57 39.4973 289.269 39.6367 289.519 40.106C289.563 40.2087 289.621 40.3627 289.695 40.568C289.768 40.7733 289.827 40.92 289.871 41.008C290.061 41.0813 290.259 41.1987 290.465 41.36C290.67 41.5067 290.861 41.5947 291.037 41.624L291.433 41.58C291.535 41.58 291.675 41.5727 291.851 41.558C292.041 41.5433 292.225 41.5213 292.401 41.492C292.591 41.448 292.76 41.3967 292.907 41.338C293.068 41.2793 293.178 41.206 293.237 41.118C293.281 41.0447 293.347 40.9933 293.435 40.964C293.523 40.92 293.611 40.8833 293.699 40.854C293.757 40.8393 293.809 40.832 293.853 40.832C293.911 40.8173 293.977 40.8027 294.051 40.788L294.293 41.646L294.029 42.152C294.014 42.1813 293.963 42.218 293.875 42.262C293.801 42.2913 293.713 42.3353 293.611 42.394C293.508 42.4527 293.405 42.5113 293.303 42.57C293.215 42.614 293.149 42.658 293.105 42.702C293.075 42.7313 292.995 42.746 292.863 42.746C292.745 42.746 292.606 42.746 292.445 42.746C292.298 42.746 292.144 42.7533 291.983 42.768C291.821 42.7827 291.697 42.812 291.609 42.856C291.403 42.9587 291.242 43.0247 291.125 43.054C291.022 43.0833 290.934 43.1053 290.861 43.12C290.787 43.1493 290.736 43.142 290.707 43.098C290.677 43.0833 290.626 43.076 290.553 43.076C290.509 43.076 290.45 43.076 290.377 43.076C290.303 43.076 290.23 43.0687 290.157 43.054C289.966 43.0393 289.812 43.032 289.695 43.032C289.577 43.0173 289.504 43.01 289.475 43.01L287.363 41.976C287.319 41.536 287.113 41.316 286.747 41.316C286.673 41.316 286.585 41.2573 286.483 41.14C286.38 41.008 286.292 40.8687 286.219 40.722C286.16 40.6487 286.109 40.568 286.065 40.48C286.021 40.3773 285.977 40.2673 285.933 40.15L285.735 37.642L285.933 36.168C285.947 36.1093 285.991 36.036 286.065 35.948C286.153 35.8013 286.263 35.5813 286.395 35.288C286.453 35.156 286.571 35.0313 286.747 34.914C286.923 34.7967 287.106 34.694 287.297 34.606C287.502 34.5033 287.693 34.4153 287.869 34.342C288.059 34.254 288.199 34.1807 288.287 34.122C288.463 34.1513 288.719 33.9607 289.057 33.55C289.145 33.4473 289.255 33.3667 289.387 33.308C289.519 33.2347 289.651 33.176 289.783 33.132C289.856 33.1027 289.937 33.0807 290.025 33.066C290.113 33.0513 290.193 33.0367 290.267 33.022L292.841 33.352C292.987 33.3813 293.141 33.4253 293.303 33.484C293.42 33.5427 293.537 33.616 293.655 33.704C293.772 33.792 293.867 33.8947 293.941 34.012C294.043 34.2613 294.19 34.4667 294.381 34.628C294.571 34.7747 294.725 34.8773 294.843 34.936L295.657 36.388L295.481 37.818L295.107 38.28ZM291.851 37.532L292.027 37.4C292.071 37.3707 292.115 37.3413 292.159 37.312C292.203 37.268 292.239 37.2387 292.269 37.224C292.371 37.1947 292.489 37.136 292.621 37.048C292.753 36.96 292.804 36.85 292.775 36.718C292.775 36.4687 292.643 36.19 292.379 35.882C292.115 35.574 291.77 35.354 291.345 35.222C291.139 35.1487 290.941 35.112 290.751 35.112C290.56 35.112 290.377 35.1267 290.201 35.156C290.039 35.1707 289.885 35.1927 289.739 35.222C289.607 35.2513 289.497 35.266 289.409 35.266C289.071 35.1927 288.881 35.3467 288.837 35.728C288.617 36.0653 288.507 36.4393 288.507 36.85C288.521 37.246 288.565 37.6273 288.639 37.994C288.639 38.1993 288.675 38.368 288.749 38.5C288.837 38.632 288.939 38.7127 289.057 38.742C289.174 38.7713 289.291 38.7493 289.409 38.676C289.541 38.588 289.651 38.434 289.739 38.214L291.851 37.532ZM297.237 34.958L298.183 33.44C298.242 33.44 298.301 33.44 298.359 33.44C298.418 33.4253 298.484 33.4107 298.557 33.396C298.675 33.3813 298.829 33.3593 299.019 33.33C299.21 33.3007 299.43 33.2713 299.679 33.242C300.677 33.1247 301.043 32.8827 300.779 32.516L303.925 32.054H304.739L304.893 32.23L304.981 32.956L304.607 33.242L303.507 33.264L302.077 33.968L300.493 34.474L300.229 35.068L300.735 36.3L301.351 36.388L301.637 37.026L302.165 36.982L302.473 37.356C302.605 37.312 302.737 37.2827 302.869 37.268C303.001 37.2387 303.119 37.2387 303.221 37.268C303.295 37.2827 303.375 37.2973 303.463 37.312C303.551 37.312 303.654 37.3267 303.771 37.356C303.918 37.4 304.021 37.4513 304.079 37.51C304.138 37.554 304.189 37.598 304.233 37.642C304.277 37.6713 304.329 37.7007 304.387 37.73C304.446 37.7593 304.549 37.774 304.695 37.774C304.739 37.862 304.82 37.95 304.937 38.038C305.069 38.126 305.209 38.214 305.355 38.302C305.517 38.39 305.671 38.478 305.817 38.566C305.979 38.654 306.096 38.742 306.169 38.83C306.199 38.8593 306.213 38.8813 306.213 38.896C306.228 38.9107 306.25 38.9327 306.279 38.962L306.411 40.018L305.927 41.338L305.795 42.262L304.717 42.812L302.935 43.516L301.857 43.362C301.476 43.3033 301.139 43.3033 300.845 43.362C300.552 43.4207 300.281 43.45 300.031 43.45H297.611L297.347 42.79L297.523 42.152L300.713 41.822L301.769 41.69L303.089 40.282L302.891 39.644L301.923 39.468L300.229 39.006L299.943 39.16L299.019 38.742L298.425 38.346L297.743 36.85L297.237 35.86V34.958ZM308.422 35.486C308.363 35.3247 308.319 35.112 308.29 34.848C308.26 34.5693 308.231 34.3347 308.202 34.144L308.62 33.352C308.884 33.308 309.067 33.2933 309.17 33.308C309.287 33.3227 309.375 33.3447 309.434 33.374C309.522 33.3593 309.646 33.3447 309.808 33.33C309.984 33.3007 310.248 33.2567 310.6 33.198C310.629 32.9487 310.68 32.67 310.754 32.362C310.827 32.054 310.878 31.7093 310.908 31.328L310.6 31.02L310.578 30.69L310.82 30.118H313.46L314.45 30.162C314.552 30.2793 314.596 30.4187 314.582 30.58C314.567 30.7267 314.538 30.866 314.494 30.998C314.45 31.13 314.406 31.24 314.362 31.328C314.332 31.4013 314.34 31.4233 314.384 31.394V32.758C314.296 32.8313 314.23 32.9193 314.186 33.022C314.142 33.11 314.105 33.2127 314.076 33.33L314.12 33.374L315.396 33.33C315.44 33.3447 315.484 33.3593 315.528 33.374C315.572 33.3887 315.623 33.4033 315.682 33.418C315.858 33.462 316.085 33.484 316.364 33.484L316.562 33.704L316.32 34.76C316.232 34.76 316.114 34.7747 315.968 34.804C315.821 34.8187 315.667 34.8407 315.506 34.87C315.359 34.8847 315.22 34.8993 315.088 34.914C314.97 34.9287 314.89 34.936 314.846 34.936L313.922 35.2C313.863 35.3613 313.819 35.5007 313.79 35.618C313.775 35.7207 313.768 35.8233 313.768 35.926C313.768 36.014 313.768 36.1167 313.768 36.234C313.782 36.3367 313.79 36.4687 313.79 36.63L313.636 39.424C313.592 39.6733 313.577 39.9007 313.592 40.106C313.621 40.3113 313.658 40.4873 313.702 40.634C313.731 40.7073 313.76 40.7807 313.79 40.854C313.819 40.9273 313.848 41.0007 313.878 41.074L314.076 41.646L314.164 41.756L316.298 41.096L317.112 40.898L317.596 41.338L317.068 42.042L316.562 42.306L316.122 42.394L313.592 43.516C313.518 43.516 313.46 43.5087 313.416 43.494C313.342 43.494 313.254 43.494 313.152 43.494C313.064 43.4793 312.961 43.4647 312.844 43.45C312.316 43.406 311.92 43.4207 311.656 43.494C311.656 43.0833 311.494 42.8047 311.172 42.658C311.01 42.5553 310.864 42.4673 310.732 42.394C310.614 42.3207 310.504 42.262 310.402 42.218C310.402 41.9687 310.402 41.8 310.402 41.712C310.416 41.624 310.402 41.5067 310.358 41.36C310.328 41.2867 310.321 41.1253 310.336 40.876C310.35 40.612 310.365 40.282 310.38 39.886C310.409 39.4753 310.394 39.1453 310.336 38.896C310.277 38.632 310.189 38.5 310.072 38.5C310.086 38.3093 310.094 38.1187 310.094 37.928C310.108 37.7373 310.123 37.5687 310.138 37.422C310.152 37.3487 310.16 37.268 310.16 37.18C310.16 37.092 310.16 37.0113 310.16 36.938C310.189 36.8793 310.211 36.8353 310.226 36.806C310.24 36.762 310.255 36.7327 310.27 36.718C310.284 36.6887 310.35 36.652 310.468 36.608C310.6 36.5493 310.717 36.3953 310.82 36.146C311.157 35.9113 311.304 35.6987 311.26 35.508C311.216 35.3173 310.959 35.1853 310.49 35.112C310.387 35.1267 310.299 35.156 310.226 35.2C310.167 35.2293 310.138 35.31 310.138 35.442L308.818 35.728L308.422 35.486ZM330.018 33.638L331.712 33.968L331.36 34.826V34.892C331.374 35.024 331.294 35.464 331.118 36.212C331.103 36.256 331.037 36.322 330.92 36.41C330.817 36.498 330.692 36.6007 330.546 36.718C330.414 36.8353 330.282 36.96 330.15 37.092C330.018 37.2093 329.93 37.3267 329.886 37.444L326.696 42.328L326.036 42.988C325.992 43.0027 325.948 43.0247 325.904 43.054C325.874 43.0687 325.845 43.076 325.816 43.076L326.014 43.362L324.98 44.924L323.638 46.684L323.308 47.146L320.712 47.014L320.316 45.892L321.064 45.694L321.592 45.144L321.988 44.858V44.308C322.046 44.2787 322.098 44.242 322.142 44.198C322.2 44.1687 322.259 44.132 322.318 44.088C322.406 44.0147 322.501 43.9267 322.604 43.824C322.706 43.7213 322.802 43.5967 322.89 43.45C323.212 42.878 323.22 42.592 322.912 42.592C323.029 42.504 323.11 42.438 323.154 42.394C323.3 42.2473 323.396 42.0567 323.44 41.822C323.498 41.3673 323.469 41.074 323.352 40.942C323.278 40.9273 323.117 40.7733 322.868 40.48C322.736 40.3333 322.626 40.2087 322.538 40.106C322.45 40.0033 322.376 39.9373 322.318 39.908C322.23 39.6587 322.098 39.38 321.922 39.072C321.76 38.764 321.577 38.456 321.372 38.148C321.181 37.8253 320.983 37.51 320.778 37.202C320.572 36.894 320.382 36.608 320.206 36.344C319.678 35.552 319.216 35.0167 318.82 34.738L318.666 34.144C318.842 33.9533 319.062 33.8433 319.326 33.814C319.619 33.7847 319.824 33.682 319.942 33.506L321.196 33.11C321.46 33.2567 321.702 33.4253 321.922 33.616C322.23 33.8947 322.545 34.0853 322.868 34.188C322.868 34.3787 322.926 34.5473 323.044 34.694C323.161 34.8407 323.293 34.98 323.44 35.112C323.586 35.2293 323.726 35.3393 323.858 35.442C324.004 35.5447 324.107 35.6473 324.166 35.75C324.166 35.7647 324.173 35.816 324.188 35.904C324.217 35.9773 324.232 36.058 324.232 36.146C324.246 36.234 324.246 36.3147 324.232 36.388C324.232 36.4467 324.21 36.476 324.166 36.476C324.092 36.476 324.1 36.5127 324.188 36.586C324.276 36.6593 324.444 36.7547 324.694 36.872C324.694 36.916 324.723 36.9967 324.782 37.114C324.855 37.2313 324.943 37.3633 325.046 37.51C325.148 37.6567 325.251 37.8107 325.354 37.972C325.456 38.1187 325.544 38.258 325.618 38.39C325.779 38.698 325.889 38.9913 325.948 39.27C326.006 39.534 326.058 39.6807 326.102 39.71C326.131 39.71 326.19 39.6953 326.278 39.666C326.366 39.622 326.461 39.578 326.564 39.534C326.666 39.4753 326.754 39.4093 326.828 39.336C326.901 39.248 326.938 39.16 326.938 39.072C326.938 38.984 326.908 38.9107 326.85 38.852L326.696 38.654C326.652 38.5807 326.615 38.5147 326.586 38.456C326.556 38.3973 326.556 38.3387 326.586 38.28C326.747 38.148 326.864 38.038 326.938 37.95C327.011 37.8473 327.106 37.7153 327.224 37.554C327.253 37.4807 327.312 37.4 327.4 37.312C327.502 37.2093 327.605 37.114 327.708 37.026C327.825 36.938 327.928 36.8647 328.016 36.806C328.104 36.7327 328.148 36.6887 328.148 36.674C328.265 36.4393 328.36 36.212 328.434 35.992C328.507 35.7573 328.602 35.4273 328.72 35.002C328.734 34.9287 328.771 34.8553 328.83 34.782C328.903 34.7087 328.976 34.6427 329.05 34.584C329.138 34.5107 329.211 34.452 329.27 34.408C329.343 34.3493 329.387 34.298 329.402 34.254C329.416 34.2247 329.424 34.21 329.424 34.21C329.424 34.1953 329.431 34.1733 329.446 34.144L330.018 33.638ZM337.1 40.106L337.188 41.668L337.1 42.482V42.9L336.682 43.494L335.956 43.67L334.064 44.022C333.902 44.0513 333.77 44.0293 333.668 43.956C333.58 43.868 333.536 43.6553 333.536 43.318V43.274L333.888 41.602L333.954 40.106V39.27L334.218 37.378C334.203 37.3047 334.188 37.1653 334.174 36.96C334.159 36.7547 334.137 36.498 334.108 36.19C334.093 36.0287 334.086 35.882 334.086 35.75C334.086 35.618 334.078 35.5007 334.064 35.398V34.936C334.064 34.9507 334.115 34.9067 334.218 34.804C334.32 34.6867 334.408 34.5473 334.482 34.386C334.555 34.21 334.584 34.0193 334.57 33.814C334.555 33.6087 334.43 33.418 334.196 33.242L334.57 29.436C334.672 29.3773 334.68 29.2013 334.592 28.908L335.032 28.468L335.318 28.424C335.376 28.4387 335.472 28.4533 335.604 28.468C335.736 28.468 335.875 28.4753 336.022 28.49C336.168 28.49 336.308 28.4973 336.44 28.512C336.586 28.512 336.696 28.5193 336.77 28.534C336.902 28.5633 337.07 28.5853 337.276 28.6C337.481 28.6 337.628 28.622 337.716 28.666L338.156 28.908V29.326C338.2 29.414 338.192 29.5387 338.134 29.7C338.09 29.8467 338.075 30.0227 338.09 30.228C338.09 30.3307 338.082 30.448 338.068 30.58C338.053 30.712 338.038 30.8367 338.024 30.954C338.024 31.0713 338.016 31.174 338.002 31.262C337.987 31.35 337.98 31.4013 337.98 31.416C337.98 31.4453 337.972 31.482 337.958 31.526L337.936 31.702C337.936 31.7607 337.921 31.812 337.892 31.856C337.877 31.9 337.862 31.9147 337.848 31.9C337.833 31.9 337.796 31.944 337.738 32.032C337.694 32.12 337.642 32.23 337.584 32.362C337.54 32.4793 337.503 32.604 337.474 32.736C337.444 32.868 337.437 32.9707 337.452 33.044C337.466 33.1173 337.481 33.2347 337.496 33.396C337.51 33.5427 337.525 33.748 337.54 34.012C337.54 34.144 337.54 34.2613 337.54 34.364C337.554 34.4667 337.562 34.5547 337.562 34.628C337.562 34.716 337.569 34.782 337.584 34.826L337.43 36.124L337.474 36.762C337.268 37.1727 337.173 37.4587 337.188 37.62C337.217 37.7813 337.305 37.9133 337.452 38.016L337.1 40.106ZM349.935 38.28C349.612 38.236 349.326 38.2947 349.077 38.456C348.989 38.5 348.901 38.544 348.813 38.588C348.725 38.6173 348.637 38.6467 348.549 38.676C348.505 38.6907 348.461 38.7053 348.417 38.72C348.373 38.7347 348.336 38.7493 348.307 38.764L345.249 39.688C344.398 39.4973 344.098 39.6367 344.347 40.106C344.391 40.2087 344.45 40.3627 344.523 40.568C344.596 40.7733 344.655 40.92 344.699 41.008C344.89 41.0813 345.088 41.1987 345.293 41.36C345.498 41.5067 345.689 41.5947 345.865 41.624L346.261 41.58C346.364 41.58 346.503 41.5727 346.679 41.558C346.87 41.5433 347.053 41.5213 347.229 41.492C347.42 41.448 347.588 41.3967 347.735 41.338C347.896 41.2793 348.006 41.206 348.065 41.118C348.109 41.0447 348.175 40.9933 348.263 40.964C348.351 40.92 348.439 40.8833 348.527 40.854C348.586 40.8393 348.637 40.832 348.681 40.832C348.74 40.8173 348.806 40.8027 348.879 40.788L349.121 41.646L348.857 42.152C348.842 42.1813 348.791 42.218 348.703 42.262C348.63 42.2913 348.542 42.3353 348.439 42.394C348.336 42.4527 348.234 42.5113 348.131 42.57C348.043 42.614 347.977 42.658 347.933 42.702C347.904 42.7313 347.823 42.746 347.691 42.746C347.574 42.746 347.434 42.746 347.273 42.746C347.126 42.746 346.972 42.7533 346.811 42.768C346.65 42.7827 346.525 42.812 346.437 42.856C346.232 42.9587 346.07 43.0247 345.953 43.054C345.85 43.0833 345.762 43.1053 345.689 43.12C345.616 43.1493 345.564 43.142 345.535 43.098C345.506 43.0833 345.454 43.076 345.381 43.076C345.337 43.076 345.278 43.076 345.205 43.076C345.132 43.076 345.058 43.0687 344.985 43.054C344.794 43.0393 344.64 43.032 344.523 43.032C344.406 43.0173 344.332 43.01 344.303 43.01L342.191 41.976C342.147 41.536 341.942 41.316 341.575 41.316C341.502 41.316 341.414 41.2573 341.311 41.14C341.208 41.008 341.12 40.8687 341.047 40.722C340.988 40.6487 340.937 40.568 340.893 40.48C340.849 40.3773 340.805 40.2673 340.761 40.15L340.563 37.642L340.761 36.168C340.776 36.1093 340.82 36.036 340.893 35.948C340.981 35.8013 341.091 35.5813 341.223 35.288C341.282 35.156 341.399 35.0313 341.575 34.914C341.751 34.7967 341.934 34.694 342.125 34.606C342.33 34.5033 342.521 34.4153 342.697 34.342C342.888 34.254 343.027 34.1807 343.115 34.122C343.291 34.1513 343.548 33.9607 343.885 33.55C343.973 33.4473 344.083 33.3667 344.215 33.308C344.347 33.2347 344.479 33.176 344.611 33.132C344.684 33.1027 344.765 33.0807 344.853 33.066C344.941 33.0513 345.022 33.0367 345.095 33.022L347.669 33.352C347.816 33.3813 347.97 33.4253 348.131 33.484C348.248 33.5427 348.366 33.616 348.483 33.704C348.6 33.792 348.696 33.8947 348.769 34.012C348.872 34.2613 349.018 34.4667 349.209 34.628C349.4 34.7747 349.554 34.8773 349.671 34.936L350.485 36.388L350.309 37.818L349.935 38.28ZM346.679 37.532L346.855 37.4C346.899 37.3707 346.943 37.3413 346.987 37.312C347.031 37.268 347.068 37.2387 347.097 37.224C347.2 37.1947 347.317 37.136 347.449 37.048C347.581 36.96 347.632 36.85 347.603 36.718C347.603 36.4687 347.471 36.19 347.207 35.882C346.943 35.574 346.598 35.354 346.173 35.222C345.968 35.1487 345.77 35.112 345.579 35.112C345.388 35.112 345.205 35.1267 345.029 35.156C344.868 35.1707 344.714 35.1927 344.567 35.222C344.435 35.2513 344.325 35.266 344.237 35.266C343.9 35.1927 343.709 35.3467 343.665 35.728C343.445 36.0653 343.335 36.4393 343.335 36.85C343.35 37.246 343.394 37.6273 343.467 37.994C343.467 38.1993 343.504 38.368 343.577 38.5C343.665 38.632 343.768 38.7127 343.885 38.742C344.002 38.7713 344.12 38.7493 344.237 38.676C344.369 38.588 344.479 38.434 344.567 38.214L346.679 37.532Z" fill="black"/>
</svg>
